%TF.GenerationSoftware,KiCad,Pcbnew,9.0.2*%
%TF.CreationDate,2025-06-27T12:13:13-04:00*%
%TF.ProjectId,hackpad,6861636b-7061-4642-9e6b-696361645f70,rev?*%
%TF.SameCoordinates,Original*%
%TF.FileFunction,Legend,Top*%
%TF.FilePolarity,Positive*%
%FSLAX46Y46*%
G04 Gerber Fmt 4.6, Leading zero omitted, Abs format (unit mm)*
G04 Created by KiCad (PCBNEW 9.0.2) date 2025-06-27 12:13:13*
%MOMM*%
%LPD*%
G01*
G04 APERTURE LIST*
%ADD10C,0.100000*%
%ADD11C,0.150000*%
%ADD12C,0.101600*%
%ADD13C,0.120000*%
%ADD14C,0.504000*%
%ADD15C,0.127000*%
G04 APERTURE END LIST*
D10*
X87608646Y-58047419D02*
X88275312Y-59047419D01*
X88275312Y-58047419D02*
X87608646Y-59047419D01*
X88656265Y-59047419D02*
X88656265Y-58047419D01*
X89084836Y-58761704D02*
X89561026Y-58761704D01*
X88989598Y-59047419D02*
X89322931Y-58047419D01*
X89322931Y-58047419D02*
X89656264Y-59047419D01*
X90180074Y-58047419D02*
X90370550Y-58047419D01*
X90370550Y-58047419D02*
X90465788Y-58095038D01*
X90465788Y-58095038D02*
X90561026Y-58190276D01*
X90561026Y-58190276D02*
X90608645Y-58380752D01*
X90608645Y-58380752D02*
X90608645Y-58714085D01*
X90608645Y-58714085D02*
X90561026Y-58904561D01*
X90561026Y-58904561D02*
X90465788Y-58999800D01*
X90465788Y-58999800D02*
X90370550Y-59047419D01*
X90370550Y-59047419D02*
X90180074Y-59047419D01*
X90180074Y-59047419D02*
X90084836Y-58999800D01*
X90084836Y-58999800D02*
X89989598Y-58904561D01*
X89989598Y-58904561D02*
X89941979Y-58714085D01*
X89941979Y-58714085D02*
X89941979Y-58380752D01*
X89941979Y-58380752D02*
X89989598Y-58190276D01*
X89989598Y-58190276D02*
X90084836Y-58095038D01*
X90084836Y-58095038D02*
X90180074Y-58047419D01*
X91799122Y-59047419D02*
X91799122Y-58047419D01*
X91799122Y-58523609D02*
X92370550Y-58523609D01*
X92370550Y-59047419D02*
X92370550Y-58047419D01*
X92846741Y-58523609D02*
X93180074Y-58523609D01*
X93322931Y-59047419D02*
X92846741Y-59047419D01*
X92846741Y-59047419D02*
X92846741Y-58047419D01*
X92846741Y-58047419D02*
X93322931Y-58047419D01*
X94322931Y-59047419D02*
X93989598Y-58571228D01*
X93751503Y-59047419D02*
X93751503Y-58047419D01*
X93751503Y-58047419D02*
X94132455Y-58047419D01*
X94132455Y-58047419D02*
X94227693Y-58095038D01*
X94227693Y-58095038D02*
X94275312Y-58142657D01*
X94275312Y-58142657D02*
X94322931Y-58237895D01*
X94322931Y-58237895D02*
X94322931Y-58380752D01*
X94322931Y-58380752D02*
X94275312Y-58475990D01*
X94275312Y-58475990D02*
X94227693Y-58523609D01*
X94227693Y-58523609D02*
X94132455Y-58571228D01*
X94132455Y-58571228D02*
X93751503Y-58571228D01*
X94751503Y-58523609D02*
X95084836Y-58523609D01*
X95227693Y-59047419D02*
X94751503Y-59047419D01*
X94751503Y-59047419D02*
X94751503Y-58047419D01*
X94751503Y-58047419D02*
X95227693Y-58047419D01*
X95656265Y-58952180D02*
X95703884Y-58999800D01*
X95703884Y-58999800D02*
X95656265Y-59047419D01*
X95656265Y-59047419D02*
X95608646Y-58999800D01*
X95608646Y-58999800D02*
X95656265Y-58952180D01*
X95656265Y-58952180D02*
X95656265Y-59047419D01*
X95656265Y-58666466D02*
X95608646Y-58095038D01*
X95608646Y-58095038D02*
X95656265Y-58047419D01*
X95656265Y-58047419D02*
X95703884Y-58095038D01*
X95703884Y-58095038D02*
X95656265Y-58666466D01*
X95656265Y-58666466D02*
X95656265Y-58047419D01*
X82431265Y-95911704D02*
X82907455Y-95911704D01*
X82336027Y-96197419D02*
X82669360Y-95197419D01*
X82669360Y-95197419D02*
X83002693Y-96197419D01*
X83336027Y-96197419D02*
X83336027Y-95197419D01*
X83336027Y-95197419D02*
X83907455Y-96197419D01*
X83907455Y-96197419D02*
X83907455Y-95197419D01*
X84383646Y-96197419D02*
X84383646Y-95197419D01*
X84383646Y-95197419D02*
X84621741Y-95197419D01*
X84621741Y-95197419D02*
X84764598Y-95245038D01*
X84764598Y-95245038D02*
X84859836Y-95340276D01*
X84859836Y-95340276D02*
X84907455Y-95435514D01*
X84907455Y-95435514D02*
X84955074Y-95625990D01*
X84955074Y-95625990D02*
X84955074Y-95768847D01*
X84955074Y-95768847D02*
X84907455Y-95959323D01*
X84907455Y-95959323D02*
X84859836Y-96054561D01*
X84859836Y-96054561D02*
X84764598Y-96149800D01*
X84764598Y-96149800D02*
X84621741Y-96197419D01*
X84621741Y-96197419D02*
X84383646Y-96197419D01*
X85574122Y-95721228D02*
X85574122Y-96197419D01*
X85240789Y-95197419D02*
X85574122Y-95721228D01*
X85574122Y-95721228D02*
X85907455Y-95197419D01*
X86288408Y-95197419D02*
X86193170Y-95387895D01*
X86669360Y-96149800D02*
X86812217Y-96197419D01*
X86812217Y-96197419D02*
X87050312Y-96197419D01*
X87050312Y-96197419D02*
X87145550Y-96149800D01*
X87145550Y-96149800D02*
X87193169Y-96102180D01*
X87193169Y-96102180D02*
X87240788Y-96006942D01*
X87240788Y-96006942D02*
X87240788Y-95911704D01*
X87240788Y-95911704D02*
X87193169Y-95816466D01*
X87193169Y-95816466D02*
X87145550Y-95768847D01*
X87145550Y-95768847D02*
X87050312Y-95721228D01*
X87050312Y-95721228D02*
X86859836Y-95673609D01*
X86859836Y-95673609D02*
X86764598Y-95625990D01*
X86764598Y-95625990D02*
X86716979Y-95578371D01*
X86716979Y-95578371D02*
X86669360Y-95483133D01*
X86669360Y-95483133D02*
X86669360Y-95387895D01*
X86669360Y-95387895D02*
X86716979Y-95292657D01*
X86716979Y-95292657D02*
X86764598Y-95245038D01*
X86764598Y-95245038D02*
X86859836Y-95197419D01*
X86859836Y-95197419D02*
X87097931Y-95197419D01*
X87097931Y-95197419D02*
X87240788Y-95245038D01*
X88431265Y-96197419D02*
X88431265Y-95197419D01*
X88431265Y-95673609D02*
X89002693Y-95673609D01*
X89002693Y-96197419D02*
X89002693Y-95197419D01*
X89478884Y-95673609D02*
X89812217Y-95673609D01*
X89955074Y-96197419D02*
X89478884Y-96197419D01*
X89478884Y-96197419D02*
X89478884Y-95197419D01*
X89478884Y-95197419D02*
X89955074Y-95197419D01*
X90288408Y-95197419D02*
X90955074Y-96197419D01*
X90955074Y-95197419D02*
X90288408Y-96197419D01*
X91288408Y-95911704D02*
X91764598Y-95911704D01*
X91193170Y-96197419D02*
X91526503Y-95197419D01*
X91526503Y-95197419D02*
X91859836Y-96197419D01*
X92193170Y-96197419D02*
X92193170Y-95197419D01*
X92193170Y-95197419D02*
X92574122Y-95197419D01*
X92574122Y-95197419D02*
X92669360Y-95245038D01*
X92669360Y-95245038D02*
X92716979Y-95292657D01*
X92716979Y-95292657D02*
X92764598Y-95387895D01*
X92764598Y-95387895D02*
X92764598Y-95530752D01*
X92764598Y-95530752D02*
X92716979Y-95625990D01*
X92716979Y-95625990D02*
X92669360Y-95673609D01*
X92669360Y-95673609D02*
X92574122Y-95721228D01*
X92574122Y-95721228D02*
X92193170Y-95721228D01*
X93145551Y-95911704D02*
X93621741Y-95911704D01*
X93050313Y-96197419D02*
X93383646Y-95197419D01*
X93383646Y-95197419D02*
X93716979Y-96197419D01*
X94050313Y-96197419D02*
X94050313Y-95197419D01*
X94050313Y-95197419D02*
X94288408Y-95197419D01*
X94288408Y-95197419D02*
X94431265Y-95245038D01*
X94431265Y-95245038D02*
X94526503Y-95340276D01*
X94526503Y-95340276D02*
X94574122Y-95435514D01*
X94574122Y-95435514D02*
X94621741Y-95625990D01*
X94621741Y-95625990D02*
X94621741Y-95768847D01*
X94621741Y-95768847D02*
X94574122Y-95959323D01*
X94574122Y-95959323D02*
X94526503Y-96054561D01*
X94526503Y-96054561D02*
X94431265Y-96149800D01*
X94431265Y-96149800D02*
X94288408Y-96197419D01*
X94288408Y-96197419D02*
X94050313Y-96197419D01*
D11*
X84316667Y-77850950D02*
X84459524Y-77898569D01*
X84459524Y-77898569D02*
X84697619Y-77898569D01*
X84697619Y-77898569D02*
X84792857Y-77850950D01*
X84792857Y-77850950D02*
X84840476Y-77803330D01*
X84840476Y-77803330D02*
X84888095Y-77708092D01*
X84888095Y-77708092D02*
X84888095Y-77612854D01*
X84888095Y-77612854D02*
X84840476Y-77517616D01*
X84840476Y-77517616D02*
X84792857Y-77469997D01*
X84792857Y-77469997D02*
X84697619Y-77422378D01*
X84697619Y-77422378D02*
X84507143Y-77374759D01*
X84507143Y-77374759D02*
X84411905Y-77327140D01*
X84411905Y-77327140D02*
X84364286Y-77279521D01*
X84364286Y-77279521D02*
X84316667Y-77184283D01*
X84316667Y-77184283D02*
X84316667Y-77089045D01*
X84316667Y-77089045D02*
X84364286Y-76993807D01*
X84364286Y-76993807D02*
X84411905Y-76946188D01*
X84411905Y-76946188D02*
X84507143Y-76898569D01*
X84507143Y-76898569D02*
X84745238Y-76898569D01*
X84745238Y-76898569D02*
X84888095Y-76946188D01*
X85221429Y-76898569D02*
X85459524Y-77898569D01*
X85459524Y-77898569D02*
X85650000Y-77184283D01*
X85650000Y-77184283D02*
X85840476Y-77898569D01*
X85840476Y-77898569D02*
X86078572Y-76898569D01*
X86364286Y-76898569D02*
X87030952Y-76898569D01*
X87030952Y-76898569D02*
X86602381Y-77898569D01*
X90404819Y-73596666D02*
X89928628Y-73929999D01*
X90404819Y-74168094D02*
X89404819Y-74168094D01*
X89404819Y-74168094D02*
X89404819Y-73787142D01*
X89404819Y-73787142D02*
X89452438Y-73691904D01*
X89452438Y-73691904D02*
X89500057Y-73644285D01*
X89500057Y-73644285D02*
X89595295Y-73596666D01*
X89595295Y-73596666D02*
X89738152Y-73596666D01*
X89738152Y-73596666D02*
X89833390Y-73644285D01*
X89833390Y-73644285D02*
X89881009Y-73691904D01*
X89881009Y-73691904D02*
X89928628Y-73787142D01*
X89928628Y-73787142D02*
X89928628Y-74168094D01*
X89404819Y-73263332D02*
X89404819Y-72644285D01*
X89404819Y-72644285D02*
X89785771Y-72977618D01*
X89785771Y-72977618D02*
X89785771Y-72834761D01*
X89785771Y-72834761D02*
X89833390Y-72739523D01*
X89833390Y-72739523D02*
X89881009Y-72691904D01*
X89881009Y-72691904D02*
X89976247Y-72644285D01*
X89976247Y-72644285D02*
X90214342Y-72644285D01*
X90214342Y-72644285D02*
X90309580Y-72691904D01*
X90309580Y-72691904D02*
X90357200Y-72739523D01*
X90357200Y-72739523D02*
X90404819Y-72834761D01*
X90404819Y-72834761D02*
X90404819Y-73120475D01*
X90404819Y-73120475D02*
X90357200Y-73215713D01*
X90357200Y-73215713D02*
X90309580Y-73263332D01*
X86774819Y-73636666D02*
X86298628Y-73969999D01*
X86774819Y-74208094D02*
X85774819Y-74208094D01*
X85774819Y-74208094D02*
X85774819Y-73827142D01*
X85774819Y-73827142D02*
X85822438Y-73731904D01*
X85822438Y-73731904D02*
X85870057Y-73684285D01*
X85870057Y-73684285D02*
X85965295Y-73636666D01*
X85965295Y-73636666D02*
X86108152Y-73636666D01*
X86108152Y-73636666D02*
X86203390Y-73684285D01*
X86203390Y-73684285D02*
X86251009Y-73731904D01*
X86251009Y-73731904D02*
X86298628Y-73827142D01*
X86298628Y-73827142D02*
X86298628Y-74208094D01*
X86108152Y-72779523D02*
X86774819Y-72779523D01*
X85727200Y-73017618D02*
X86441485Y-73255713D01*
X86441485Y-73255713D02*
X86441485Y-72636666D01*
X98139819Y-73316666D02*
X97663628Y-73649999D01*
X98139819Y-73888094D02*
X97139819Y-73888094D01*
X97139819Y-73888094D02*
X97139819Y-73507142D01*
X97139819Y-73507142D02*
X97187438Y-73411904D01*
X97187438Y-73411904D02*
X97235057Y-73364285D01*
X97235057Y-73364285D02*
X97330295Y-73316666D01*
X97330295Y-73316666D02*
X97473152Y-73316666D01*
X97473152Y-73316666D02*
X97568390Y-73364285D01*
X97568390Y-73364285D02*
X97616009Y-73411904D01*
X97616009Y-73411904D02*
X97663628Y-73507142D01*
X97663628Y-73507142D02*
X97663628Y-73888094D01*
X98139819Y-72364285D02*
X98139819Y-72935713D01*
X98139819Y-72649999D02*
X97139819Y-72649999D01*
X97139819Y-72649999D02*
X97282676Y-72745237D01*
X97282676Y-72745237D02*
X97377914Y-72840475D01*
X97377914Y-72840475D02*
X97425533Y-72935713D01*
X129635417Y-56826950D02*
X129778274Y-56874569D01*
X129778274Y-56874569D02*
X130016369Y-56874569D01*
X130016369Y-56874569D02*
X130111607Y-56826950D01*
X130111607Y-56826950D02*
X130159226Y-56779330D01*
X130159226Y-56779330D02*
X130206845Y-56684092D01*
X130206845Y-56684092D02*
X130206845Y-56588854D01*
X130206845Y-56588854D02*
X130159226Y-56493616D01*
X130159226Y-56493616D02*
X130111607Y-56445997D01*
X130111607Y-56445997D02*
X130016369Y-56398378D01*
X130016369Y-56398378D02*
X129825893Y-56350759D01*
X129825893Y-56350759D02*
X129730655Y-56303140D01*
X129730655Y-56303140D02*
X129683036Y-56255521D01*
X129683036Y-56255521D02*
X129635417Y-56160283D01*
X129635417Y-56160283D02*
X129635417Y-56065045D01*
X129635417Y-56065045D02*
X129683036Y-55969807D01*
X129683036Y-55969807D02*
X129730655Y-55922188D01*
X129730655Y-55922188D02*
X129825893Y-55874569D01*
X129825893Y-55874569D02*
X130063988Y-55874569D01*
X130063988Y-55874569D02*
X130206845Y-55922188D01*
X130540179Y-55874569D02*
X130778274Y-56874569D01*
X130778274Y-56874569D02*
X130968750Y-56160283D01*
X130968750Y-56160283D02*
X131159226Y-56874569D01*
X131159226Y-56874569D02*
X131397322Y-55874569D01*
X131683036Y-55874569D02*
X132302083Y-55874569D01*
X132302083Y-55874569D02*
X131968750Y-56255521D01*
X131968750Y-56255521D02*
X132111607Y-56255521D01*
X132111607Y-56255521D02*
X132206845Y-56303140D01*
X132206845Y-56303140D02*
X132254464Y-56350759D01*
X132254464Y-56350759D02*
X132302083Y-56445997D01*
X132302083Y-56445997D02*
X132302083Y-56684092D01*
X132302083Y-56684092D02*
X132254464Y-56779330D01*
X132254464Y-56779330D02*
X132206845Y-56826950D01*
X132206845Y-56826950D02*
X132111607Y-56874569D01*
X132111607Y-56874569D02*
X131825893Y-56874569D01*
X131825893Y-56874569D02*
X131730655Y-56826950D01*
X131730655Y-56826950D02*
X131683036Y-56779330D01*
X117386905Y-48404819D02*
X117386905Y-47404819D01*
X117386905Y-47404819D02*
X117625000Y-47404819D01*
X117625000Y-47404819D02*
X117767857Y-47452438D01*
X117767857Y-47452438D02*
X117863095Y-47547676D01*
X117863095Y-47547676D02*
X117910714Y-47642914D01*
X117910714Y-47642914D02*
X117958333Y-47833390D01*
X117958333Y-47833390D02*
X117958333Y-47976247D01*
X117958333Y-47976247D02*
X117910714Y-48166723D01*
X117910714Y-48166723D02*
X117863095Y-48261961D01*
X117863095Y-48261961D02*
X117767857Y-48357200D01*
X117767857Y-48357200D02*
X117625000Y-48404819D01*
X117625000Y-48404819D02*
X117386905Y-48404819D01*
X118339286Y-47500057D02*
X118386905Y-47452438D01*
X118386905Y-47452438D02*
X118482143Y-47404819D01*
X118482143Y-47404819D02*
X118720238Y-47404819D01*
X118720238Y-47404819D02*
X118815476Y-47452438D01*
X118815476Y-47452438D02*
X118863095Y-47500057D01*
X118863095Y-47500057D02*
X118910714Y-47595295D01*
X118910714Y-47595295D02*
X118910714Y-47690533D01*
X118910714Y-47690533D02*
X118863095Y-47833390D01*
X118863095Y-47833390D02*
X118291667Y-48404819D01*
X118291667Y-48404819D02*
X118910714Y-48404819D01*
X115153571Y-50187295D02*
X114696428Y-50187295D01*
X114925000Y-50187295D02*
X114925000Y-49387295D01*
X114925000Y-49387295D02*
X114848809Y-49501580D01*
X114848809Y-49501580D02*
X114772619Y-49577771D01*
X114772619Y-49577771D02*
X114696428Y-49615866D01*
X124776905Y-48404819D02*
X124776905Y-47404819D01*
X124776905Y-47404819D02*
X125015000Y-47404819D01*
X125015000Y-47404819D02*
X125157857Y-47452438D01*
X125157857Y-47452438D02*
X125253095Y-47547676D01*
X125253095Y-47547676D02*
X125300714Y-47642914D01*
X125300714Y-47642914D02*
X125348333Y-47833390D01*
X125348333Y-47833390D02*
X125348333Y-47976247D01*
X125348333Y-47976247D02*
X125300714Y-48166723D01*
X125300714Y-48166723D02*
X125253095Y-48261961D01*
X125253095Y-48261961D02*
X125157857Y-48357200D01*
X125157857Y-48357200D02*
X125015000Y-48404819D01*
X125015000Y-48404819D02*
X124776905Y-48404819D01*
X126300714Y-48404819D02*
X125729286Y-48404819D01*
X126015000Y-48404819D02*
X126015000Y-47404819D01*
X126015000Y-47404819D02*
X125919762Y-47547676D01*
X125919762Y-47547676D02*
X125824524Y-47642914D01*
X125824524Y-47642914D02*
X125729286Y-47690533D01*
X122543571Y-50187295D02*
X122086428Y-50187295D01*
X122315000Y-50187295D02*
X122315000Y-49387295D01*
X122315000Y-49387295D02*
X122238809Y-49501580D01*
X122238809Y-49501580D02*
X122162619Y-49577771D01*
X122162619Y-49577771D02*
X122086428Y-49615866D01*
X132346905Y-48404819D02*
X132346905Y-47404819D01*
X132346905Y-47404819D02*
X132585000Y-47404819D01*
X132585000Y-47404819D02*
X132727857Y-47452438D01*
X132727857Y-47452438D02*
X132823095Y-47547676D01*
X132823095Y-47547676D02*
X132870714Y-47642914D01*
X132870714Y-47642914D02*
X132918333Y-47833390D01*
X132918333Y-47833390D02*
X132918333Y-47976247D01*
X132918333Y-47976247D02*
X132870714Y-48166723D01*
X132870714Y-48166723D02*
X132823095Y-48261961D01*
X132823095Y-48261961D02*
X132727857Y-48357200D01*
X132727857Y-48357200D02*
X132585000Y-48404819D01*
X132585000Y-48404819D02*
X132346905Y-48404819D01*
X133251667Y-47404819D02*
X133870714Y-47404819D01*
X133870714Y-47404819D02*
X133537381Y-47785771D01*
X133537381Y-47785771D02*
X133680238Y-47785771D01*
X133680238Y-47785771D02*
X133775476Y-47833390D01*
X133775476Y-47833390D02*
X133823095Y-47881009D01*
X133823095Y-47881009D02*
X133870714Y-47976247D01*
X133870714Y-47976247D02*
X133870714Y-48214342D01*
X133870714Y-48214342D02*
X133823095Y-48309580D01*
X133823095Y-48309580D02*
X133775476Y-48357200D01*
X133775476Y-48357200D02*
X133680238Y-48404819D01*
X133680238Y-48404819D02*
X133394524Y-48404819D01*
X133394524Y-48404819D02*
X133299286Y-48357200D01*
X133299286Y-48357200D02*
X133251667Y-48309580D01*
X130113571Y-50187295D02*
X129656428Y-50187295D01*
X129885000Y-50187295D02*
X129885000Y-49387295D01*
X129885000Y-49387295D02*
X129808809Y-49501580D01*
X129808809Y-49501580D02*
X129732619Y-49577771D01*
X129732619Y-49577771D02*
X129656428Y-49615866D01*
X140066905Y-48159819D02*
X140066905Y-47159819D01*
X140066905Y-47159819D02*
X140305000Y-47159819D01*
X140305000Y-47159819D02*
X140447857Y-47207438D01*
X140447857Y-47207438D02*
X140543095Y-47302676D01*
X140543095Y-47302676D02*
X140590714Y-47397914D01*
X140590714Y-47397914D02*
X140638333Y-47588390D01*
X140638333Y-47588390D02*
X140638333Y-47731247D01*
X140638333Y-47731247D02*
X140590714Y-47921723D01*
X140590714Y-47921723D02*
X140543095Y-48016961D01*
X140543095Y-48016961D02*
X140447857Y-48112200D01*
X140447857Y-48112200D02*
X140305000Y-48159819D01*
X140305000Y-48159819D02*
X140066905Y-48159819D01*
X141495476Y-47493152D02*
X141495476Y-48159819D01*
X141257381Y-47112200D02*
X141019286Y-47826485D01*
X141019286Y-47826485D02*
X141638333Y-47826485D01*
X137683571Y-50187295D02*
X137226428Y-50187295D01*
X137455000Y-50187295D02*
X137455000Y-49387295D01*
X137455000Y-49387295D02*
X137378809Y-49501580D01*
X137378809Y-49501580D02*
X137302619Y-49577771D01*
X137302619Y-49577771D02*
X137226428Y-49615866D01*
D12*
X91191190Y-55578479D02*
X91191190Y-56092526D01*
X91191190Y-56092526D02*
X91221428Y-56153002D01*
X91221428Y-56153002D02*
X91251666Y-56183241D01*
X91251666Y-56183241D02*
X91312142Y-56213479D01*
X91312142Y-56213479D02*
X91433095Y-56213479D01*
X91433095Y-56213479D02*
X91493571Y-56183241D01*
X91493571Y-56183241D02*
X91523809Y-56153002D01*
X91523809Y-56153002D02*
X91554047Y-56092526D01*
X91554047Y-56092526D02*
X91554047Y-55578479D01*
X92189047Y-56213479D02*
X91826190Y-56213479D01*
X92007618Y-56213479D02*
X92007618Y-55578479D01*
X92007618Y-55578479D02*
X91947142Y-55669193D01*
X91947142Y-55669193D02*
X91886666Y-55729669D01*
X91886666Y-55729669D02*
X91826190Y-55759907D01*
D11*
X94369819Y-73556666D02*
X93893628Y-73889999D01*
X94369819Y-74128094D02*
X93369819Y-74128094D01*
X93369819Y-74128094D02*
X93369819Y-73747142D01*
X93369819Y-73747142D02*
X93417438Y-73651904D01*
X93417438Y-73651904D02*
X93465057Y-73604285D01*
X93465057Y-73604285D02*
X93560295Y-73556666D01*
X93560295Y-73556666D02*
X93703152Y-73556666D01*
X93703152Y-73556666D02*
X93798390Y-73604285D01*
X93798390Y-73604285D02*
X93846009Y-73651904D01*
X93846009Y-73651904D02*
X93893628Y-73747142D01*
X93893628Y-73747142D02*
X93893628Y-74128094D01*
X93465057Y-73175713D02*
X93417438Y-73128094D01*
X93417438Y-73128094D02*
X93369819Y-73032856D01*
X93369819Y-73032856D02*
X93369819Y-72794761D01*
X93369819Y-72794761D02*
X93417438Y-72699523D01*
X93417438Y-72699523D02*
X93465057Y-72651904D01*
X93465057Y-72651904D02*
X93560295Y-72604285D01*
X93560295Y-72604285D02*
X93655533Y-72604285D01*
X93655533Y-72604285D02*
X93798390Y-72651904D01*
X93798390Y-72651904D02*
X94369819Y-73223332D01*
X94369819Y-73223332D02*
X94369819Y-72604285D01*
X110585417Y-75876950D02*
X110728274Y-75924569D01*
X110728274Y-75924569D02*
X110966369Y-75924569D01*
X110966369Y-75924569D02*
X111061607Y-75876950D01*
X111061607Y-75876950D02*
X111109226Y-75829330D01*
X111109226Y-75829330D02*
X111156845Y-75734092D01*
X111156845Y-75734092D02*
X111156845Y-75638854D01*
X111156845Y-75638854D02*
X111109226Y-75543616D01*
X111109226Y-75543616D02*
X111061607Y-75495997D01*
X111061607Y-75495997D02*
X110966369Y-75448378D01*
X110966369Y-75448378D02*
X110775893Y-75400759D01*
X110775893Y-75400759D02*
X110680655Y-75353140D01*
X110680655Y-75353140D02*
X110633036Y-75305521D01*
X110633036Y-75305521D02*
X110585417Y-75210283D01*
X110585417Y-75210283D02*
X110585417Y-75115045D01*
X110585417Y-75115045D02*
X110633036Y-75019807D01*
X110633036Y-75019807D02*
X110680655Y-74972188D01*
X110680655Y-74972188D02*
X110775893Y-74924569D01*
X110775893Y-74924569D02*
X111013988Y-74924569D01*
X111013988Y-74924569D02*
X111156845Y-74972188D01*
X111490179Y-74924569D02*
X111728274Y-75924569D01*
X111728274Y-75924569D02*
X111918750Y-75210283D01*
X111918750Y-75210283D02*
X112109226Y-75924569D01*
X112109226Y-75924569D02*
X112347322Y-74924569D01*
X112680655Y-75019807D02*
X112728274Y-74972188D01*
X112728274Y-74972188D02*
X112823512Y-74924569D01*
X112823512Y-74924569D02*
X113061607Y-74924569D01*
X113061607Y-74924569D02*
X113156845Y-74972188D01*
X113156845Y-74972188D02*
X113204464Y-75019807D01*
X113204464Y-75019807D02*
X113252083Y-75115045D01*
X113252083Y-75115045D02*
X113252083Y-75210283D01*
X113252083Y-75210283D02*
X113204464Y-75353140D01*
X113204464Y-75353140D02*
X112633036Y-75924569D01*
X112633036Y-75924569D02*
X113252083Y-75924569D01*
X110585417Y-56826950D02*
X110728274Y-56874569D01*
X110728274Y-56874569D02*
X110966369Y-56874569D01*
X110966369Y-56874569D02*
X111061607Y-56826950D01*
X111061607Y-56826950D02*
X111109226Y-56779330D01*
X111109226Y-56779330D02*
X111156845Y-56684092D01*
X111156845Y-56684092D02*
X111156845Y-56588854D01*
X111156845Y-56588854D02*
X111109226Y-56493616D01*
X111109226Y-56493616D02*
X111061607Y-56445997D01*
X111061607Y-56445997D02*
X110966369Y-56398378D01*
X110966369Y-56398378D02*
X110775893Y-56350759D01*
X110775893Y-56350759D02*
X110680655Y-56303140D01*
X110680655Y-56303140D02*
X110633036Y-56255521D01*
X110633036Y-56255521D02*
X110585417Y-56160283D01*
X110585417Y-56160283D02*
X110585417Y-56065045D01*
X110585417Y-56065045D02*
X110633036Y-55969807D01*
X110633036Y-55969807D02*
X110680655Y-55922188D01*
X110680655Y-55922188D02*
X110775893Y-55874569D01*
X110775893Y-55874569D02*
X111013988Y-55874569D01*
X111013988Y-55874569D02*
X111156845Y-55922188D01*
X111490179Y-55874569D02*
X111728274Y-56874569D01*
X111728274Y-56874569D02*
X111918750Y-56160283D01*
X111918750Y-56160283D02*
X112109226Y-56874569D01*
X112109226Y-56874569D02*
X112347322Y-55874569D01*
X113252083Y-56874569D02*
X112680655Y-56874569D01*
X112966369Y-56874569D02*
X112966369Y-55874569D01*
X112966369Y-55874569D02*
X112871131Y-56017426D01*
X112871131Y-56017426D02*
X112775893Y-56112664D01*
X112775893Y-56112664D02*
X112680655Y-56160283D01*
X101988095Y-49704819D02*
X101988095Y-50514342D01*
X101988095Y-50514342D02*
X102035714Y-50609580D01*
X102035714Y-50609580D02*
X102083333Y-50657200D01*
X102083333Y-50657200D02*
X102178571Y-50704819D01*
X102178571Y-50704819D02*
X102369047Y-50704819D01*
X102369047Y-50704819D02*
X102464285Y-50657200D01*
X102464285Y-50657200D02*
X102511904Y-50609580D01*
X102511904Y-50609580D02*
X102559523Y-50514342D01*
X102559523Y-50514342D02*
X102559523Y-49704819D01*
X102988095Y-49800057D02*
X103035714Y-49752438D01*
X103035714Y-49752438D02*
X103130952Y-49704819D01*
X103130952Y-49704819D02*
X103369047Y-49704819D01*
X103369047Y-49704819D02*
X103464285Y-49752438D01*
X103464285Y-49752438D02*
X103511904Y-49800057D01*
X103511904Y-49800057D02*
X103559523Y-49895295D01*
X103559523Y-49895295D02*
X103559523Y-49990533D01*
X103559523Y-49990533D02*
X103511904Y-50133390D01*
X103511904Y-50133390D02*
X102940476Y-50704819D01*
X102940476Y-50704819D02*
X103559523Y-50704819D01*
X148685417Y-75876950D02*
X148828274Y-75924569D01*
X148828274Y-75924569D02*
X149066369Y-75924569D01*
X149066369Y-75924569D02*
X149161607Y-75876950D01*
X149161607Y-75876950D02*
X149209226Y-75829330D01*
X149209226Y-75829330D02*
X149256845Y-75734092D01*
X149256845Y-75734092D02*
X149256845Y-75638854D01*
X149256845Y-75638854D02*
X149209226Y-75543616D01*
X149209226Y-75543616D02*
X149161607Y-75495997D01*
X149161607Y-75495997D02*
X149066369Y-75448378D01*
X149066369Y-75448378D02*
X148875893Y-75400759D01*
X148875893Y-75400759D02*
X148780655Y-75353140D01*
X148780655Y-75353140D02*
X148733036Y-75305521D01*
X148733036Y-75305521D02*
X148685417Y-75210283D01*
X148685417Y-75210283D02*
X148685417Y-75115045D01*
X148685417Y-75115045D02*
X148733036Y-75019807D01*
X148733036Y-75019807D02*
X148780655Y-74972188D01*
X148780655Y-74972188D02*
X148875893Y-74924569D01*
X148875893Y-74924569D02*
X149113988Y-74924569D01*
X149113988Y-74924569D02*
X149256845Y-74972188D01*
X149590179Y-74924569D02*
X149828274Y-75924569D01*
X149828274Y-75924569D02*
X150018750Y-75210283D01*
X150018750Y-75210283D02*
X150209226Y-75924569D01*
X150209226Y-75924569D02*
X150447322Y-74924569D01*
X151256845Y-74924569D02*
X151066369Y-74924569D01*
X151066369Y-74924569D02*
X150971131Y-74972188D01*
X150971131Y-74972188D02*
X150923512Y-75019807D01*
X150923512Y-75019807D02*
X150828274Y-75162664D01*
X150828274Y-75162664D02*
X150780655Y-75353140D01*
X150780655Y-75353140D02*
X150780655Y-75734092D01*
X150780655Y-75734092D02*
X150828274Y-75829330D01*
X150828274Y-75829330D02*
X150875893Y-75876950D01*
X150875893Y-75876950D02*
X150971131Y-75924569D01*
X150971131Y-75924569D02*
X151161607Y-75924569D01*
X151161607Y-75924569D02*
X151256845Y-75876950D01*
X151256845Y-75876950D02*
X151304464Y-75829330D01*
X151304464Y-75829330D02*
X151352083Y-75734092D01*
X151352083Y-75734092D02*
X151352083Y-75495997D01*
X151352083Y-75495997D02*
X151304464Y-75400759D01*
X151304464Y-75400759D02*
X151256845Y-75353140D01*
X151256845Y-75353140D02*
X151161607Y-75305521D01*
X151161607Y-75305521D02*
X150971131Y-75305521D01*
X150971131Y-75305521D02*
X150875893Y-75353140D01*
X150875893Y-75353140D02*
X150828274Y-75400759D01*
X150828274Y-75400759D02*
X150780655Y-75495997D01*
X148685417Y-56826950D02*
X148828274Y-56874569D01*
X148828274Y-56874569D02*
X149066369Y-56874569D01*
X149066369Y-56874569D02*
X149161607Y-56826950D01*
X149161607Y-56826950D02*
X149209226Y-56779330D01*
X149209226Y-56779330D02*
X149256845Y-56684092D01*
X149256845Y-56684092D02*
X149256845Y-56588854D01*
X149256845Y-56588854D02*
X149209226Y-56493616D01*
X149209226Y-56493616D02*
X149161607Y-56445997D01*
X149161607Y-56445997D02*
X149066369Y-56398378D01*
X149066369Y-56398378D02*
X148875893Y-56350759D01*
X148875893Y-56350759D02*
X148780655Y-56303140D01*
X148780655Y-56303140D02*
X148733036Y-56255521D01*
X148733036Y-56255521D02*
X148685417Y-56160283D01*
X148685417Y-56160283D02*
X148685417Y-56065045D01*
X148685417Y-56065045D02*
X148733036Y-55969807D01*
X148733036Y-55969807D02*
X148780655Y-55922188D01*
X148780655Y-55922188D02*
X148875893Y-55874569D01*
X148875893Y-55874569D02*
X149113988Y-55874569D01*
X149113988Y-55874569D02*
X149256845Y-55922188D01*
X149590179Y-55874569D02*
X149828274Y-56874569D01*
X149828274Y-56874569D02*
X150018750Y-56160283D01*
X150018750Y-56160283D02*
X150209226Y-56874569D01*
X150209226Y-56874569D02*
X150447322Y-55874569D01*
X151304464Y-55874569D02*
X150828274Y-55874569D01*
X150828274Y-55874569D02*
X150780655Y-56350759D01*
X150780655Y-56350759D02*
X150828274Y-56303140D01*
X150828274Y-56303140D02*
X150923512Y-56255521D01*
X150923512Y-56255521D02*
X151161607Y-56255521D01*
X151161607Y-56255521D02*
X151256845Y-56303140D01*
X151256845Y-56303140D02*
X151304464Y-56350759D01*
X151304464Y-56350759D02*
X151352083Y-56445997D01*
X151352083Y-56445997D02*
X151352083Y-56684092D01*
X151352083Y-56684092D02*
X151304464Y-56779330D01*
X151304464Y-56779330D02*
X151256845Y-56826950D01*
X151256845Y-56826950D02*
X151161607Y-56874569D01*
X151161607Y-56874569D02*
X150923512Y-56874569D01*
X150923512Y-56874569D02*
X150828274Y-56826950D01*
X150828274Y-56826950D02*
X150780655Y-56779330D01*
X129635417Y-75876950D02*
X129778274Y-75924569D01*
X129778274Y-75924569D02*
X130016369Y-75924569D01*
X130016369Y-75924569D02*
X130111607Y-75876950D01*
X130111607Y-75876950D02*
X130159226Y-75829330D01*
X130159226Y-75829330D02*
X130206845Y-75734092D01*
X130206845Y-75734092D02*
X130206845Y-75638854D01*
X130206845Y-75638854D02*
X130159226Y-75543616D01*
X130159226Y-75543616D02*
X130111607Y-75495997D01*
X130111607Y-75495997D02*
X130016369Y-75448378D01*
X130016369Y-75448378D02*
X129825893Y-75400759D01*
X129825893Y-75400759D02*
X129730655Y-75353140D01*
X129730655Y-75353140D02*
X129683036Y-75305521D01*
X129683036Y-75305521D02*
X129635417Y-75210283D01*
X129635417Y-75210283D02*
X129635417Y-75115045D01*
X129635417Y-75115045D02*
X129683036Y-75019807D01*
X129683036Y-75019807D02*
X129730655Y-74972188D01*
X129730655Y-74972188D02*
X129825893Y-74924569D01*
X129825893Y-74924569D02*
X130063988Y-74924569D01*
X130063988Y-74924569D02*
X130206845Y-74972188D01*
X130540179Y-74924569D02*
X130778274Y-75924569D01*
X130778274Y-75924569D02*
X130968750Y-75210283D01*
X130968750Y-75210283D02*
X131159226Y-75924569D01*
X131159226Y-75924569D02*
X131397322Y-74924569D01*
X132206845Y-75257902D02*
X132206845Y-75924569D01*
X131968750Y-74876950D02*
X131730655Y-75591235D01*
X131730655Y-75591235D02*
X132349702Y-75591235D01*
X154304761Y-49129819D02*
X153971428Y-48653628D01*
X153733333Y-49129819D02*
X153733333Y-48129819D01*
X153733333Y-48129819D02*
X154114285Y-48129819D01*
X154114285Y-48129819D02*
X154209523Y-48177438D01*
X154209523Y-48177438D02*
X154257142Y-48225057D01*
X154257142Y-48225057D02*
X154304761Y-48320295D01*
X154304761Y-48320295D02*
X154304761Y-48463152D01*
X154304761Y-48463152D02*
X154257142Y-48558390D01*
X154257142Y-48558390D02*
X154209523Y-48606009D01*
X154209523Y-48606009D02*
X154114285Y-48653628D01*
X154114285Y-48653628D02*
X153733333Y-48653628D01*
X154590476Y-48129819D02*
X154923809Y-49129819D01*
X154923809Y-49129819D02*
X155257142Y-48129819D01*
X156114285Y-49129819D02*
X155542857Y-49129819D01*
X155828571Y-49129819D02*
X155828571Y-48129819D01*
X155828571Y-48129819D02*
X155733333Y-48272676D01*
X155733333Y-48272676D02*
X155638095Y-48367914D01*
X155638095Y-48367914D02*
X155542857Y-48415533D01*
D13*
%TO.C,SW7*%
X94750000Y-83343750D02*
G75*
G02*
X88750000Y-83343750I-3000000J0D01*
G01*
X88750000Y-83343750D02*
G75*
G02*
X94750000Y-83343750I3000000J0D01*
G01*
X97850000Y-89243750D02*
X93750000Y-89243750D01*
X97850000Y-86843750D02*
X97850000Y-89243750D01*
X97850000Y-82043750D02*
X97850000Y-84643750D01*
X97850000Y-77443750D02*
X97850000Y-79843750D01*
X93750000Y-77443750D02*
X97850000Y-77443750D01*
X91750000Y-82843750D02*
X91750000Y-83843750D01*
X91250000Y-83343750D02*
X92250000Y-83343750D01*
X89750000Y-89243750D02*
X85650000Y-89243750D01*
X89750000Y-77443750D02*
X85650000Y-77443750D01*
X85650000Y-77443750D02*
X85650000Y-89243750D01*
X84550000Y-79243750D02*
X84250000Y-79543750D01*
X84250000Y-79543750D02*
X83950000Y-79243750D01*
X83950000Y-79243750D02*
X84550000Y-79243750D01*
%TO.C,R3*%
X90685000Y-70222936D02*
X90685000Y-70677064D01*
X89215000Y-70222936D02*
X89215000Y-70677064D01*
%TO.C,R4*%
X85615000Y-70222936D02*
X85615000Y-70677064D01*
X87085000Y-70222936D02*
X87085000Y-70677064D01*
%TO.C,R1*%
X98460000Y-70222936D02*
X98460000Y-70677064D01*
X96990000Y-70222936D02*
X96990000Y-70677064D01*
%TO.C,SW3*%
X137953750Y-71278750D02*
X123983750Y-71278750D01*
X137953750Y-57308750D02*
X137953750Y-71278750D01*
X123983750Y-71278750D02*
X123983750Y-57308750D01*
X123983750Y-57308750D02*
X137953750Y-57308750D01*
%TO.C,D2*%
X120925000Y-52100000D02*
X120925000Y-48700000D01*
X120925000Y-52100000D02*
X120325000Y-52700000D01*
X115325000Y-52700000D02*
X120325000Y-52700000D01*
X115325000Y-48700000D02*
X120925000Y-48700000D01*
X115325000Y-48700000D02*
X115325000Y-52700000D01*
%TO.C,D1*%
X128315000Y-52100000D02*
X128315000Y-48700000D01*
X128315000Y-52100000D02*
X127715000Y-52700000D01*
X122715000Y-52700000D02*
X127715000Y-52700000D01*
X122715000Y-48700000D02*
X128315000Y-48700000D01*
X122715000Y-48700000D02*
X122715000Y-52700000D01*
%TO.C,D3*%
X135885000Y-52100000D02*
X135885000Y-48700000D01*
X135885000Y-52100000D02*
X135285000Y-52700000D01*
X130285000Y-52700000D02*
X135285000Y-52700000D01*
X130285000Y-48700000D02*
X135885000Y-48700000D01*
X130285000Y-48700000D02*
X130285000Y-52700000D01*
%TO.C,D4*%
X137855000Y-48700000D02*
X137855000Y-52700000D01*
X137855000Y-48700000D02*
X143455000Y-48700000D01*
X137855000Y-52700000D02*
X142855000Y-52700000D01*
X143455000Y-52100000D02*
X142855000Y-52700000D01*
X143455000Y-52100000D02*
X143455000Y-48700000D01*
%TO.C,U1*%
D14*
X84120000Y-47523500D02*
G75*
G02*
X83616000Y-47523500I-252000J0D01*
G01*
X83616000Y-47523500D02*
G75*
G02*
X84120000Y-47523500I252000J0D01*
G01*
X82977000Y-46643500D02*
G75*
G02*
X82473000Y-46643500I-252000J0D01*
G01*
X82473000Y-46643500D02*
G75*
G02*
X82977000Y-46643500I252000J0D01*
G01*
D15*
X100565000Y-65452500D02*
G75*
G02*
X98660000Y-67357500I-1905000J0D01*
G01*
X98660000Y-46402500D02*
G75*
G02*
X100565000Y-48307500I0J-1905000D01*
G01*
X95679000Y-44992500D02*
G75*
G02*
X96179000Y-45492500I0J-500000D01*
G01*
X87183728Y-45492228D02*
G75*
G02*
X87683728Y-44992501I500018J-291D01*
G01*
X84690000Y-67357500D02*
G75*
G02*
X82785000Y-65452500I1J1905001D01*
G01*
X82785000Y-48307500D02*
G75*
G02*
X84690000Y-46402500I1905001J-1D01*
G01*
X100565000Y-65452500D02*
X100565000Y-48307500D01*
X98660000Y-46402500D02*
X84690000Y-46402500D01*
D10*
X98660000Y-46402500D02*
X84690000Y-46402500D01*
D15*
X96179000Y-45492500D02*
X96179000Y-46402500D01*
X87683728Y-44992500D02*
X95679000Y-44992500D01*
X87180000Y-46402500D02*
X87183728Y-45492228D01*
X84690000Y-67357500D02*
X98660000Y-67357500D01*
X82785000Y-65452500D02*
X82785000Y-48307500D01*
D13*
%TO.C,R2*%
X93140000Y-70222936D02*
X93140000Y-70677064D01*
X94610000Y-70222936D02*
X94610000Y-70677064D01*
%TO.C,SW2*%
X118903750Y-90328750D02*
X104933750Y-90328750D01*
X118903750Y-76358750D02*
X118903750Y-90328750D01*
X104933750Y-90328750D02*
X104933750Y-76358750D01*
X104933750Y-76358750D02*
X118903750Y-76358750D01*
%TO.C,SW1*%
X104933750Y-57308750D02*
X118903750Y-57308750D01*
X104933750Y-71278750D02*
X104933750Y-57308750D01*
X118903750Y-57308750D02*
X118903750Y-71278750D01*
X118903750Y-71278750D02*
X104933750Y-71278750D01*
%TO.C,U2*%
X105350000Y-53110000D02*
X107150000Y-53110000D01*
X106350000Y-49890000D02*
X105550000Y-49890000D01*
X106350000Y-49890000D02*
X107150000Y-49890000D01*
X105050000Y-49940000D02*
X104810000Y-49610000D01*
X105290000Y-49610000D01*
X105050000Y-49940000D01*
G36*
X105050000Y-49940000D02*
G01*
X104810000Y-49610000D01*
X105290000Y-49610000D01*
X105050000Y-49940000D01*
G37*
%TO.C,SW6*%
X143033750Y-76358750D02*
X157003750Y-76358750D01*
X143033750Y-90328750D02*
X143033750Y-76358750D01*
X157003750Y-76358750D02*
X157003750Y-90328750D01*
X157003750Y-90328750D02*
X143033750Y-90328750D01*
%TO.C,SW5*%
X143033750Y-57308750D02*
X157003750Y-57308750D01*
X143033750Y-71278750D02*
X143033750Y-57308750D01*
X157003750Y-57308750D02*
X157003750Y-71278750D01*
X157003750Y-71278750D02*
X143033750Y-71278750D01*
%TO.C,SW4*%
X123983750Y-76358750D02*
X137953750Y-76358750D01*
X123983750Y-90328750D02*
X123983750Y-76358750D01*
X137953750Y-76358750D02*
X137953750Y-90328750D01*
X137953750Y-90328750D02*
X123983750Y-90328750D01*
%TO.C,RV1*%
X149875000Y-49475000D02*
X149875000Y-54525000D01*
X149875000Y-49475000D02*
X159625000Y-49475000D01*
X149875000Y-54525000D02*
X159625000Y-54525000D01*
X159625000Y-49475000D02*
X159625000Y-54525000D01*
%TD*%
M02*
