%TF.GenerationSoftware,KiCad,Pcbnew,9.0.2*%
%TF.CreationDate,2025-06-27T12:13:13-04:00*%
%TF.ProjectId,hackpad,6861636b-7061-4642-9e6b-696361645f70,rev?*%
%TF.SameCoordinates,Original*%
%TF.FileFunction,Copper,L2,Bot*%
%TF.FilePolarity,Positive*%
%FSLAX46Y46*%
G04 Gerber Fmt 4.6, Leading zero omitted, Abs format (unit mm)*
G04 Created by KiCad (PCBNEW 9.0.2) date 2025-06-27 12:13:13*
%MOMM*%
%LPD*%
G01*
G04 APERTURE LIST*
%TA.AperFunction,ComponentPad*%
%ADD10C,2.000000*%
%TD*%
%TA.AperFunction,ComponentPad*%
%ADD11R,3.200000X2.000000*%
%TD*%
%TA.AperFunction,ComponentPad*%
%ADD12R,2.000000X2.000000*%
%TD*%
%TA.AperFunction,ComponentPad*%
%ADD13C,2.200000*%
%TD*%
%TA.AperFunction,ComponentPad*%
%ADD14C,1.524000*%
%TD*%
%TA.AperFunction,ComponentPad*%
%ADD15C,1.440000*%
%TD*%
%TA.AperFunction,Conductor*%
%ADD16C,0.200000*%
%TD*%
G04 APERTURE END LIST*
D10*
%TO.P,SW7,S2,S2*%
%TO.N,GND*%
X98750000Y-80843750D03*
%TO.P,SW7,S1,S1*%
%TO.N,Net-(U1-GPIO29{slash}ADC3{slash}A3)*%
X98750000Y-85843750D03*
D11*
%TO.P,SW7,MP,MP*%
%TO.N,GND*%
X91750000Y-88943750D03*
X91750000Y-77743750D03*
D10*
%TO.P,SW7,C,C*%
X84250000Y-83343750D03*
%TO.P,SW7,B,B*%
%TO.N,Net-(U1-GPIO28{slash}ADC2{slash}A2)*%
X84250000Y-85843750D03*
D12*
%TO.P,SW7,A,A*%
%TO.N,Net-(U1-GPIO27{slash}ADC1{slash}A1)*%
X84250000Y-80843750D03*
%TD*%
D13*
%TO.P,SW3,2,2*%
%TO.N,Net-(U1-GPIO4{slash}MISO)*%
X127158750Y-61753750D03*
%TO.P,SW3,1,1*%
%TO.N,GND*%
X133508750Y-59213750D03*
%TD*%
D14*
%TO.P,U1,14,VBUS*%
%TO.N,+5V*%
X99295000Y-49323500D03*
%TO.P,U1,13,GND*%
%TO.N,GND*%
X99295000Y-51863500D03*
%TO.P,U1,12,3V3*%
%TO.N,Net-(U1-3V3)*%
X99295000Y-54403500D03*
%TO.P,U1,11,GPIO3/MOSI*%
%TO.N,Net-(U1-GPIO3{slash}MOSI)*%
X99295000Y-56943500D03*
%TO.P,U1,10,GPIO4/MISO*%
%TO.N,Net-(U1-GPIO4{slash}MISO)*%
X99295000Y-59483500D03*
%TO.P,U1,9,GPIO2/SCK*%
%TO.N,Net-(U1-GPIO2{slash}SCK)*%
X99295000Y-62023500D03*
%TO.P,U1,8,GPIO1/RX*%
%TO.N,Net-(U1-GPIO1{slash}RX)*%
X99295000Y-64563500D03*
%TO.P,U1,7,GPIO0/TX*%
%TO.N,Net-(U1-GPIO0{slash}TX)*%
X84055000Y-64563500D03*
%TO.P,U1,6,GPIO7/SCL*%
%TO.N,Net-(U1-GPIO7{slash}SCL)*%
X84055000Y-62023500D03*
%TO.P,U1,5,GPIO6/SDA*%
%TO.N,Net-(U1-GPIO6{slash}SDA)*%
X84055000Y-59483500D03*
%TO.P,U1,4,GPIO29/ADC3/A3*%
%TO.N,Net-(U1-GPIO29{slash}ADC3{slash}A3)*%
X84055000Y-56943500D03*
%TO.P,U1,3,GPIO28/ADC2/A2*%
%TO.N,Net-(U1-GPIO28{slash}ADC2{slash}A2)*%
X84055000Y-54403500D03*
%TO.P,U1,2,GPIO27/ADC1/A1*%
%TO.N,Net-(U1-GPIO27{slash}ADC1{slash}A1)*%
X84055000Y-51863500D03*
%TO.P,U1,1,GPIO26/ADC0/A0*%
%TO.N,Net-(U1-GPIO26{slash}ADC0{slash}A0)*%
X84055000Y-49323500D03*
%TD*%
D13*
%TO.P,SW2,2,2*%
%TO.N,Net-(U1-GPIO2{slash}SCK)*%
X108108750Y-80803750D03*
%TO.P,SW2,1,1*%
%TO.N,GND*%
X114458750Y-78263750D03*
%TD*%
%TO.P,SW1,1,1*%
%TO.N,GND*%
X114458750Y-59213750D03*
%TO.P,SW1,2,2*%
%TO.N,Net-(U1-GPIO1{slash}RX)*%
X108108750Y-61753750D03*
%TD*%
%TO.P,SW6,1,1*%
%TO.N,GND*%
X152558750Y-78263750D03*
%TO.P,SW6,2,2*%
%TO.N,Net-(U1-GPIO7{slash}SCL)*%
X146208750Y-80803750D03*
%TD*%
%TO.P,SW5,1,1*%
%TO.N,GND*%
X152558750Y-59213750D03*
%TO.P,SW5,2,2*%
%TO.N,Net-(U1-GPIO0{slash}TX)*%
X146208750Y-61753750D03*
%TD*%
%TO.P,SW4,1,1*%
%TO.N,GND*%
X133508750Y-78263750D03*
%TO.P,SW4,2,2*%
%TO.N,Net-(U1-GPIO3{slash}MOSI)*%
X127158750Y-80803750D03*
%TD*%
D15*
%TO.P,RV1,1,1*%
%TO.N,GND*%
X157290000Y-51995000D03*
%TO.P,RV1,2,2*%
%TO.N,Net-(U1-GPIO6{slash}SDA)*%
X154750000Y-51995000D03*
%TO.P,RV1,3,3*%
%TO.N,+3V3*%
X152210000Y-51995000D03*
%TD*%
D16*
%TO.N,GND*%
X114458750Y-59213750D02*
X114458750Y-78263750D01*
%TO.N,Net-(U1-GPIO4{slash}MISO)*%
X123105000Y-57700000D02*
X127158750Y-61753750D01*
X101078500Y-57700000D02*
X123105000Y-57700000D01*
X99295000Y-59483500D02*
X101078500Y-57700000D01*
%TO.N,Net-(U1-GPIO3{slash}MOSI)*%
X127158750Y-78766250D02*
X127158750Y-80803750D01*
X135250000Y-75353470D02*
X135250000Y-75300000D01*
X145436220Y-84544750D02*
X144441280Y-84544750D01*
X148150000Y-81830970D02*
X145436220Y-84544750D01*
X148150000Y-77625000D02*
X148150000Y-81830970D01*
X148325000Y-77625000D02*
X148150000Y-77625000D01*
X150825000Y-75125000D02*
X148325000Y-77625000D01*
X150826000Y-75126000D02*
X150825000Y-75125000D01*
X157926000Y-75126000D02*
X150826000Y-75126000D01*
X160175000Y-77375000D02*
X157926000Y-75126000D01*
X160175000Y-91975000D02*
X160175000Y-77375000D01*
X144441280Y-84544750D02*
X135250000Y-75353470D01*
X160150000Y-91975000D02*
X160175000Y-91975000D01*
X159200000Y-92925000D02*
X160150000Y-91975000D01*
X82350000Y-92925000D02*
X159200000Y-92925000D01*
X130625000Y-75300000D02*
X127158750Y-78766250D01*
X80550000Y-91125000D02*
X82350000Y-92925000D01*
X80550000Y-68750000D02*
X80550000Y-91125000D01*
X83050000Y-66250000D02*
X80550000Y-68750000D01*
X135250000Y-75300000D02*
X130625000Y-75300000D01*
X89988500Y-66250000D02*
X83050000Y-66250000D01*
X99295000Y-56943500D02*
X89988500Y-66250000D01*
%TO.N,Net-(U1-GPIO0{slash}TX)*%
X158282900Y-74725000D02*
X160700000Y-77142100D01*
X79675000Y-90875000D02*
X79675000Y-67150000D01*
X82261500Y-64563500D02*
X84055000Y-64563500D01*
X81900000Y-93400000D02*
X79525000Y-91025000D01*
X79525000Y-91025000D02*
X79675000Y-90875000D01*
X159550000Y-93400000D02*
X81900000Y-93400000D01*
X79675000Y-67150000D02*
X82261500Y-64563500D01*
%TO.N,Net-(U1-GPIO1{slash}RX)*%
X102104750Y-61753750D02*
X108108750Y-61753750D01*
X99295000Y-64563500D02*
X102104750Y-61753750D01*
%TO.N,Net-(U1-GPIO2{slash}SCK)*%
X98232000Y-63086500D02*
X99295000Y-62023500D01*
X98232000Y-65003810D02*
X98232000Y-63086500D01*
X108108750Y-80803750D02*
X108108750Y-74880560D01*
X108108750Y-74880560D02*
X98232000Y-65003810D01*
%TO.N,Net-(U1-GPIO0{slash}TX)*%
X150125000Y-74725000D02*
X147650000Y-77200000D01*
X158282900Y-74725000D02*
X150125000Y-74725000D01*
X147650000Y-77200000D02*
X147650000Y-81343814D01*
X146208750Y-64722220D02*
X146208750Y-61753750D01*
X144807750Y-66123220D02*
X146208750Y-64722220D01*
X144807750Y-81384064D02*
X144807750Y-66123220D01*
X145628436Y-82204750D02*
X144807750Y-81384064D01*
X147650000Y-81343814D02*
X146789064Y-82204750D01*
X146789064Y-82204750D02*
X145628436Y-82204750D01*
%TO.N,Net-(U1-GPIO7{slash}SCL)*%
X78925000Y-62800000D02*
X79701500Y-62023500D01*
X78950000Y-62825000D02*
X78925000Y-62800000D01*
X78950000Y-91375000D02*
X78950000Y-62825000D01*
X81575000Y-94000000D02*
X78950000Y-91375000D01*
X159375000Y-94000000D02*
X81575000Y-94000000D01*
X159475000Y-94100000D02*
X159375000Y-94000000D01*
X161450000Y-92125000D02*
X159475000Y-94100000D01*
X161450000Y-77325000D02*
X161450000Y-92125000D01*
X158000000Y-73875000D02*
X161450000Y-77325000D01*
X147925000Y-73875000D02*
X158000000Y-73875000D01*
X146208750Y-75591250D02*
X147925000Y-73875000D01*
X79701500Y-62023500D02*
X84055000Y-62023500D01*
X146208750Y-80803750D02*
X146208750Y-75591250D01*
%TO.N,GND*%
X152558750Y-85116250D02*
X152558750Y-78263750D01*
X141650000Y-86225000D02*
X151450000Y-86225000D01*
X151450000Y-86225000D02*
X152558750Y-85116250D01*
X140570000Y-85325000D02*
X140750000Y-85325000D01*
X133508750Y-78263750D02*
X140570000Y-85325000D01*
X140750000Y-85325000D02*
X141650000Y-86225000D01*
%TO.N,Net-(U1-GPIO6{slash}SDA)*%
X151015500Y-48260500D02*
X154750000Y-51995000D01*
X81089500Y-48260500D02*
X151015500Y-48260500D01*
X79350000Y-57200000D02*
X79350000Y-50000000D01*
X81633500Y-59483500D02*
X79350000Y-57200000D01*
X84055000Y-59483500D02*
X81633500Y-59483500D01*
X79350000Y-50000000D02*
X81089500Y-48260500D01*
%TO.N,GND*%
X151773934Y-78263750D02*
X152558750Y-78263750D01*
X131953116Y-78263750D02*
X133508750Y-78263750D01*
X128012116Y-82204750D02*
X131953116Y-78263750D01*
X126578436Y-82204750D02*
X128012116Y-82204750D01*
X121888750Y-78263750D02*
X125475000Y-81850000D01*
X125475000Y-81850000D02*
X126223686Y-81850000D01*
X114458750Y-78263750D02*
X121888750Y-78263750D01*
X126223686Y-81850000D02*
X126578436Y-82204750D01*
X109732934Y-82204750D02*
X113673934Y-78263750D01*
X107398686Y-82075000D02*
X107528436Y-82204750D01*
X99981250Y-82075000D02*
X107398686Y-82075000D01*
X107528436Y-82204750D02*
X109732934Y-82204750D01*
X98750000Y-80843750D02*
X99981250Y-82075000D01*
X113673934Y-78263750D02*
X114458750Y-78263750D01*
%TO.N,Net-(U1-GPIO0{slash}TX)*%
X159550000Y-93400000D02*
X160700000Y-92250000D01*
X160700000Y-92250000D02*
X160700000Y-77142100D01*
%TD*%
M02*
