%TF.GenerationSoftware,KiCad,Pcbnew,9.0.2*%
%TF.CreationDate,2025-06-27T12:13:13-04:00*%
%TF.ProjectId,hackpad,6861636b-7061-4642-9e6b-696361645f70,rev?*%
%TF.SameCoordinates,Original*%
%TF.FileFunction,Copper,L1,Top*%
%TF.FilePolarity,Positive*%
%FSLAX46Y46*%
G04 Gerber Fmt 4.6, Leading zero omitted, Abs format (unit mm)*
G04 Created by KiCad (PCBNEW 9.0.2) date 2025-06-27 12:13:13*
%MOMM*%
%LPD*%
G01*
G04 APERTURE LIST*
G04 Aperture macros list*
%AMRoundRect*
0 Rectangle with rounded corners*
0 $1 Rounding radius*
0 $2 $3 $4 $5 $6 $7 $8 $9 X,Y pos of 4 corners*
0 Add a 4 corners polygon primitive as box body*
4,1,4,$2,$3,$4,$5,$6,$7,$8,$9,$2,$3,0*
0 Add four circle primitives for the rounded corners*
1,1,$1+$1,$2,$3*
1,1,$1+$1,$4,$5*
1,1,$1+$1,$6,$7*
1,1,$1+$1,$8,$9*
0 Add four rect primitives between the rounded corners*
20,1,$1+$1,$2,$3,$4,$5,0*
20,1,$1+$1,$4,$5,$6,$7,0*
20,1,$1+$1,$6,$7,$8,$9,0*
20,1,$1+$1,$8,$9,$2,$3,0*%
G04 Aperture macros list end*
%TA.AperFunction,ComponentPad*%
%ADD10C,2.000000*%
%TD*%
%TA.AperFunction,ComponentPad*%
%ADD11R,3.200000X2.000000*%
%TD*%
%TA.AperFunction,ComponentPad*%
%ADD12R,2.000000X2.000000*%
%TD*%
%TA.AperFunction,SMDPad,CuDef*%
%ADD13RoundRect,0.250000X-0.450000X0.350000X-0.450000X-0.350000X0.450000X-0.350000X0.450000X0.350000X0*%
%TD*%
%TA.AperFunction,ComponentPad*%
%ADD14C,2.200000*%
%TD*%
%TA.AperFunction,SMDPad,CuDef*%
%ADD15R,1.600000X0.850000*%
%TD*%
%TA.AperFunction,SMDPad,CuDef*%
%ADD16RoundRect,0.152400X-1.063600X-0.609600X1.063600X-0.609600X1.063600X0.609600X-1.063600X0.609600X0*%
%TD*%
%TA.AperFunction,ComponentPad*%
%ADD17C,1.524000*%
%TD*%
%TA.AperFunction,SMDPad,CuDef*%
%ADD18RoundRect,0.152400X1.063600X0.609600X-1.063600X0.609600X-1.063600X-0.609600X1.063600X-0.609600X0*%
%TD*%
%TA.AperFunction,SMDPad,CuDef*%
%ADD19RoundRect,0.162500X-0.617500X-0.162500X0.617500X-0.162500X0.617500X0.162500X-0.617500X0.162500X0*%
%TD*%
%TA.AperFunction,ComponentPad*%
%ADD20C,1.440000*%
%TD*%
%TA.AperFunction,Conductor*%
%ADD21C,0.200000*%
%TD*%
G04 APERTURE END LIST*
D10*
%TO.P,SW7,S2,S2*%
%TO.N,GND*%
X98750000Y-80843750D03*
%TO.P,SW7,S1,S1*%
%TO.N,Net-(U1-GPIO29{slash}ADC3{slash}A3)*%
X98750000Y-85843750D03*
D11*
%TO.P,SW7,MP,MP*%
%TO.N,GND*%
X91750000Y-88943750D03*
X91750000Y-77743750D03*
D10*
%TO.P,SW7,C,C*%
X84250000Y-83343750D03*
%TO.P,SW7,B,B*%
%TO.N,Net-(U1-GPIO28{slash}ADC2{slash}A2)*%
X84250000Y-85843750D03*
D12*
%TO.P,SW7,A,A*%
%TO.N,Net-(U1-GPIO27{slash}ADC1{slash}A1)*%
X84250000Y-80843750D03*
%TD*%
D13*
%TO.P,R3,1*%
%TO.N,Net-(U1-GPIO29{slash}ADC3{slash}A3)*%
X89950000Y-69450000D03*
%TO.P,R3,2*%
%TO.N,Net-(U1-3V3)*%
X89950000Y-71450000D03*
%TD*%
%TO.P,R4,2*%
%TO.N,Net-(U1-3V3)*%
X86350000Y-71450000D03*
%TO.P,R4,1*%
%TO.N,Net-(U1-GPIO27{slash}ADC1{slash}A1)*%
X86350000Y-69450000D03*
%TD*%
%TO.P,R1,1*%
%TO.N,Net-(D1-DIN)*%
X97725000Y-69450000D03*
%TO.P,R1,2*%
%TO.N,Net-(R1-Pad2)*%
X97725000Y-71450000D03*
%TD*%
D14*
%TO.P,SW3,2,2*%
%TO.N,Net-(U1-GPIO4{slash}MISO)*%
X127158750Y-61753750D03*
%TO.P,SW3,1,1*%
%TO.N,GND*%
X133508750Y-59213750D03*
%TD*%
D15*
%TO.P,D2,4,VDD*%
%TO.N,+5V*%
X119875000Y-49825000D03*
%TO.P,D2,3,DIN*%
%TO.N,Net-(D1-DOUT)*%
X119875000Y-51575000D03*
%TO.P,D2,2,VSS*%
%TO.N,GND*%
X116375000Y-51575000D03*
%TO.P,D2,1,DOUT*%
%TO.N,Net-(D2-DOUT)*%
X116375000Y-49825000D03*
%TD*%
%TO.P,D1,4,VDD*%
%TO.N,+5V*%
X127265000Y-49825000D03*
%TO.P,D1,3,DIN*%
%TO.N,Net-(D1-DIN)*%
X127265000Y-51575000D03*
%TO.P,D1,2,VSS*%
%TO.N,GND*%
X123765000Y-51575000D03*
%TO.P,D1,1,DOUT*%
%TO.N,Net-(D1-DOUT)*%
X123765000Y-49825000D03*
%TD*%
%TO.P,D3,4,VDD*%
%TO.N,+5V*%
X134835000Y-49825000D03*
%TO.P,D3,3,DIN*%
%TO.N,Net-(D2-DOUT)*%
X134835000Y-51575000D03*
%TO.P,D3,2,VSS*%
%TO.N,GND*%
X131335000Y-51575000D03*
%TO.P,D3,1,DOUT*%
%TO.N,Net-(D3-DOUT)*%
X131335000Y-49825000D03*
%TD*%
%TO.P,D4,1,DOUT*%
%TO.N,unconnected-(D4-DOUT-Pad1)*%
X138905000Y-49825000D03*
%TO.P,D4,2,VSS*%
%TO.N,GND*%
X138905000Y-51575000D03*
%TO.P,D4,3,DIN*%
%TO.N,Net-(D3-DOUT)*%
X142405000Y-51575000D03*
%TO.P,D4,4,VDD*%
%TO.N,+5V*%
X142405000Y-49825000D03*
%TD*%
D16*
%TO.P,U1,14,VBUS*%
%TO.N,+5V*%
X100130000Y-49323500D03*
D17*
X99295000Y-49323500D03*
D16*
%TO.P,U1,13,GND*%
%TO.N,GND*%
X100130000Y-51863500D03*
D17*
X99295000Y-51863500D03*
D16*
%TO.P,U1,12,3V3*%
%TO.N,Net-(U1-3V3)*%
X100130000Y-54403500D03*
D17*
X99295000Y-54403500D03*
D16*
%TO.P,U1,11,GPIO3/MOSI*%
%TO.N,Net-(U1-GPIO3{slash}MOSI)*%
X100130000Y-56943500D03*
D17*
X99295000Y-56943500D03*
D16*
%TO.P,U1,10,GPIO4/MISO*%
%TO.N,Net-(U1-GPIO4{slash}MISO)*%
X100130000Y-59483500D03*
D17*
X99295000Y-59483500D03*
D16*
%TO.P,U1,9,GPIO2/SCK*%
%TO.N,Net-(U1-GPIO2{slash}SCK)*%
X100130000Y-62023500D03*
D17*
X99295000Y-62023500D03*
D16*
%TO.P,U1,8,GPIO1/RX*%
%TO.N,Net-(U1-GPIO1{slash}RX)*%
X100130000Y-64563500D03*
D17*
X99295000Y-64563500D03*
%TO.P,U1,7,GPIO0/TX*%
%TO.N,Net-(U1-GPIO0{slash}TX)*%
X84055000Y-64563500D03*
D18*
X83220000Y-64563500D03*
D17*
%TO.P,U1,6,GPIO7/SCL*%
%TO.N,Net-(U1-GPIO7{slash}SCL)*%
X84055000Y-62023500D03*
D18*
X83220000Y-62023500D03*
D17*
%TO.P,U1,5,GPIO6/SDA*%
%TO.N,Net-(U1-GPIO6{slash}SDA)*%
X84055000Y-59483500D03*
D18*
X83220000Y-59483500D03*
D17*
%TO.P,U1,4,GPIO29/ADC3/A3*%
%TO.N,Net-(U1-GPIO29{slash}ADC3{slash}A3)*%
X84055000Y-56943500D03*
D18*
X83220000Y-56943500D03*
D17*
%TO.P,U1,3,GPIO28/ADC2/A2*%
%TO.N,Net-(U1-GPIO28{slash}ADC2{slash}A2)*%
X84055000Y-54403500D03*
D18*
X83220000Y-54403500D03*
D17*
%TO.P,U1,2,GPIO27/ADC1/A1*%
%TO.N,Net-(U1-GPIO27{slash}ADC1{slash}A1)*%
X84055000Y-51863500D03*
D18*
X83220000Y-51863500D03*
D17*
%TO.P,U1,1,GPIO26/ADC0/A0*%
%TO.N,Net-(U1-GPIO26{slash}ADC0{slash}A0)*%
X84055000Y-49323500D03*
D18*
X83220000Y-49323500D03*
%TD*%
D13*
%TO.P,R2,2*%
%TO.N,Net-(U1-3V3)*%
X93875000Y-71450000D03*
%TO.P,R2,1*%
%TO.N,Net-(U1-GPIO28{slash}ADC2{slash}A2)*%
X93875000Y-69450000D03*
%TD*%
D14*
%TO.P,SW2,2,2*%
%TO.N,Net-(U1-GPIO2{slash}SCK)*%
X108108750Y-80803750D03*
%TO.P,SW2,1,1*%
%TO.N,GND*%
X114458750Y-78263750D03*
%TD*%
%TO.P,SW1,1,1*%
%TO.N,GND*%
X114458750Y-59213750D03*
%TO.P,SW1,2,2*%
%TO.N,Net-(U1-GPIO1{slash}RX)*%
X108108750Y-61753750D03*
%TD*%
D19*
%TO.P,U2,1*%
%TO.N,GND*%
X104900000Y-50550000D03*
%TO.P,U2,2*%
%TO.N,Net-(U1-GPIO26{slash}ADC0{slash}A0)*%
X104900000Y-51500000D03*
%TO.P,U2,3,GND*%
%TO.N,GND*%
X104900000Y-52450000D03*
%TO.P,U2,4*%
%TO.N,Net-(R1-Pad2)*%
X107600000Y-52450000D03*
%TO.P,U2,5,VCC*%
%TO.N,+5V*%
X107600000Y-50550000D03*
%TD*%
D14*
%TO.P,SW6,1,1*%
%TO.N,GND*%
X152558750Y-78263750D03*
%TO.P,SW6,2,2*%
%TO.N,Net-(U1-GPIO7{slash}SCL)*%
X146208750Y-80803750D03*
%TD*%
%TO.P,SW5,1,1*%
%TO.N,GND*%
X152558750Y-59213750D03*
%TO.P,SW5,2,2*%
%TO.N,Net-(U1-GPIO0{slash}TX)*%
X146208750Y-61753750D03*
%TD*%
%TO.P,SW4,1,1*%
%TO.N,GND*%
X133508750Y-78263750D03*
%TO.P,SW4,2,2*%
%TO.N,Net-(U1-GPIO3{slash}MOSI)*%
X127158750Y-80803750D03*
%TD*%
D20*
%TO.P,RV1,1,1*%
%TO.N,GND*%
X157290000Y-51995000D03*
%TO.P,RV1,2,2*%
%TO.N,Net-(U1-GPIO6{slash}SDA)*%
X154750000Y-51995000D03*
%TO.P,RV1,3,3*%
%TO.N,+3V3*%
X152210000Y-51995000D03*
%TD*%
D21*
%TO.N,Net-(U1-GPIO28{slash}ADC2{slash}A2)*%
X84250000Y-85843750D02*
X84281250Y-85843750D01*
%TO.N,GND*%
X130757900Y-51575000D02*
X131335000Y-51575000D01*
X130031900Y-50849000D02*
X130757900Y-51575000D01*
X124491000Y-50849000D02*
X130031900Y-50849000D01*
X123765000Y-51575000D02*
X124491000Y-50849000D01*
%TO.N,+5V*%
X130301000Y-50551000D02*
X134109000Y-50551000D01*
X129575000Y-49825000D02*
X130301000Y-50551000D01*
X127265000Y-49825000D02*
X129575000Y-49825000D01*
X134109000Y-50551000D02*
X134835000Y-49825000D01*
%TO.N,Net-(D2-DOUT)*%
X117926000Y-48274000D02*
X116375000Y-49825000D01*
X143516100Y-48274000D02*
X117926000Y-48274000D01*
X143907000Y-48664900D02*
X143516100Y-48274000D01*
X143907000Y-51900000D02*
X143907000Y-48664900D01*
X143506000Y-52301000D02*
X143907000Y-51900000D01*
X141304000Y-52301000D02*
X143506000Y-52301000D01*
X139852000Y-50849000D02*
X141304000Y-52301000D01*
X135561000Y-50849000D02*
X139852000Y-50849000D01*
X134835000Y-51575000D02*
X135561000Y-50849000D01*
%TO.N,Net-(D3-DOUT)*%
X143350000Y-48675000D02*
X143506000Y-48831000D01*
X143506000Y-48831000D02*
X143506000Y-50474000D01*
X132485000Y-48675000D02*
X143350000Y-48675000D01*
X143506000Y-50474000D02*
X142405000Y-51575000D01*
X131335000Y-49825000D02*
X132485000Y-48675000D01*
%TO.N,GND*%
X138905000Y-53817500D02*
X133508750Y-59213750D01*
X138905000Y-51575000D02*
X138905000Y-53817500D01*
X131335000Y-57040000D02*
X133508750Y-59213750D01*
X131335000Y-51575000D02*
X131335000Y-57040000D01*
X106010010Y-50550000D02*
X107035010Y-51575000D01*
X104900000Y-50550000D02*
X106010010Y-50550000D01*
X100716500Y-52450000D02*
X100130000Y-51863500D01*
X104900000Y-52450000D02*
X100716500Y-52450000D01*
%TO.N,Net-(U1-GPIO26{slash}ADC0{slash}A0)*%
X100971626Y-50386500D02*
X85118000Y-50386500D01*
X85118000Y-50386500D02*
X84055000Y-49323500D01*
X102085126Y-51500000D02*
X100971626Y-50386500D01*
X104900000Y-51500000D02*
X102085126Y-51500000D01*
%TO.N,GND*%
X95650000Y-77743750D02*
X98750000Y-80843750D01*
X91750000Y-77743750D02*
X95650000Y-77743750D01*
X88031250Y-77743750D02*
X91750000Y-77743750D01*
X86125000Y-81468750D02*
X86125000Y-79650000D01*
X86125000Y-79650000D02*
X88031250Y-77743750D01*
X84250000Y-83343750D02*
X86125000Y-81468750D01*
X84250000Y-83473350D02*
X84250000Y-83343750D01*
X85975000Y-85198350D02*
X84250000Y-83473350D01*
X87118750Y-88943750D02*
X85975000Y-87800000D01*
X91750000Y-88943750D02*
X87118750Y-88943750D01*
X85975000Y-87800000D02*
X85975000Y-85198350D01*
%TO.N,Net-(U1-GPIO28{slash}ADC2{slash}A2)*%
X102200000Y-66717100D02*
X102200000Y-54025000D01*
X101116100Y-67801000D02*
X102200000Y-66717100D01*
X102200000Y-54025000D02*
X101515500Y-53340500D01*
X101515500Y-53340500D02*
X85118000Y-53340500D01*
X95524000Y-67801000D02*
X101116100Y-67801000D01*
X85118000Y-53340500D02*
X84055000Y-54403500D01*
X93875000Y-69450000D02*
X95524000Y-67801000D01*
%TO.N,Net-(R1-Pad2)*%
X106600000Y-53450000D02*
X107600000Y-52450000D01*
X102275000Y-68375000D02*
X102900000Y-67750000D01*
X102900000Y-67750000D02*
X102900000Y-54950000D01*
X102900000Y-54950000D02*
X104400000Y-53450000D01*
X97213840Y-68375000D02*
X102275000Y-68375000D01*
X96724000Y-68864840D02*
X97213840Y-68375000D01*
X96724000Y-70449000D02*
X96724000Y-68864840D01*
X97725000Y-71450000D02*
X96724000Y-70449000D01*
X104400000Y-53450000D02*
X106600000Y-53450000D01*
%TO.N,Net-(U1-GPIO28{slash}ADC2{slash}A2)*%
X101551000Y-84882642D02*
X96188892Y-90244750D01*
X101551000Y-75758900D02*
X101551000Y-84882642D01*
X84250000Y-89575000D02*
X84250000Y-85843750D01*
X100391100Y-74599000D02*
X101551000Y-75758900D01*
X96188892Y-90244750D02*
X84919750Y-90244750D01*
X99024000Y-74599000D02*
X100391100Y-74599000D01*
X93875000Y-69450000D02*
X99024000Y-74599000D01*
X84919750Y-90244750D02*
X84250000Y-89575000D01*
%TO.N,Net-(U1-3V3)*%
X101003500Y-54403500D02*
X99295000Y-54403500D01*
X101799000Y-55199000D02*
X101003500Y-54403500D01*
X101799000Y-66551000D02*
X101799000Y-55199000D01*
X100950000Y-67400000D02*
X101799000Y-66551000D01*
X94338840Y-67400000D02*
X100950000Y-67400000D01*
X92874000Y-68864840D02*
X94338840Y-67400000D01*
X92874000Y-70449000D02*
X92874000Y-68864840D01*
X93875000Y-71450000D02*
X92874000Y-70449000D01*
%TO.N,Net-(U1-GPIO28{slash}ADC2{slash}A2)*%
X94444100Y-69450000D02*
X93875000Y-69450000D01*
%TO.N,Net-(U1-GPIO29{slash}ADC3{slash}A3)*%
X100118750Y-84475000D02*
X98750000Y-85843750D01*
X100950000Y-84475000D02*
X100118750Y-84475000D01*
X101150000Y-84275000D02*
X100950000Y-84475000D01*
X101150000Y-75925000D02*
X101150000Y-84275000D01*
X100225000Y-75000000D02*
X101150000Y-75925000D01*
X85450000Y-75000000D02*
X100225000Y-75000000D01*
X84825000Y-74375000D02*
X85450000Y-75000000D01*
X84825000Y-71050000D02*
X84825000Y-74375000D01*
X85524000Y-70351000D02*
X84825000Y-71050000D01*
X89049000Y-70351000D02*
X85524000Y-70351000D01*
X89950000Y-69450000D02*
X89049000Y-70351000D01*
X82681500Y-56943500D02*
X84055000Y-56943500D01*
X80850000Y-58775000D02*
X82681500Y-56943500D01*
X80850000Y-65875000D02*
X80850000Y-58775000D01*
X82950000Y-67975000D02*
X80850000Y-65875000D01*
X86825000Y-67975000D02*
X82950000Y-67975000D01*
X88300000Y-69450000D02*
X86825000Y-67975000D01*
X89950000Y-69450000D02*
X88300000Y-69450000D01*
%TO.N,Net-(U1-GPIO27{slash}ADC1{slash}A1)*%
X81186500Y-51863500D02*
X83220000Y-51863500D01*
X80100000Y-52950000D02*
X81186500Y-51863500D01*
X83575000Y-69450000D02*
X80100000Y-65975000D01*
X86350000Y-69450000D02*
X83575000Y-69450000D01*
X80100000Y-65975000D02*
X80100000Y-52950000D01*
X82325000Y-70150000D02*
X82325000Y-79875000D01*
X83025000Y-69450000D02*
X82325000Y-70150000D01*
X82325000Y-79875000D02*
X83293750Y-80843750D01*
X83293750Y-80843750D02*
X84250000Y-80843750D01*
X86350000Y-69450000D02*
X83025000Y-69450000D01*
%TO.N,Net-(U1-3V3)*%
X89950000Y-71450000D02*
X86350000Y-71450000D01*
X93875000Y-71450000D02*
X89950000Y-71450000D01*
%TO.N,Net-(U1-GPIO28{slash}ADC2{slash}A2)*%
X82977370Y-54403500D02*
X84055000Y-54403500D01*
%TO.N,Net-(D1-DIN)*%
X102250000Y-73975000D02*
X97725000Y-69450000D01*
X121595000Y-71705000D02*
X119325000Y-73975000D01*
X119325000Y-73975000D02*
X102250000Y-73975000D01*
X121595000Y-57245000D02*
X121595000Y-71705000D01*
X127265000Y-51575000D02*
X121595000Y-57245000D01*
%TO.N,GND*%
X106160010Y-52450000D02*
X104900000Y-52450000D01*
X107035010Y-51575000D02*
X106160010Y-52450000D01*
X116375000Y-51575000D02*
X107035010Y-51575000D01*
%TO.N,+5V*%
X119150000Y-50550000D02*
X107600000Y-50550000D01*
X119875000Y-49825000D02*
X119150000Y-50550000D01*
%TO.N,GND*%
X157290000Y-54482500D02*
X157290000Y-51995000D01*
X152558750Y-59213750D02*
X157290000Y-54482500D01*
X146543750Y-59213750D02*
X152558750Y-59213750D01*
X138905000Y-51575000D02*
X146543750Y-59213750D01*
X123039000Y-52301000D02*
X117101000Y-52301000D01*
X117101000Y-52301000D02*
X116375000Y-51575000D01*
X123765000Y-51575000D02*
X123039000Y-52301000D01*
%TO.N,Net-(D1-DOUT)*%
X122015000Y-51575000D02*
X123765000Y-49825000D01*
X119875000Y-51575000D02*
X122015000Y-51575000D01*
%TO.N,+5V*%
X106373500Y-49323500D02*
X99295000Y-49323500D01*
X107600000Y-50550000D02*
X106373500Y-49323500D01*
X141679000Y-49099000D02*
X142405000Y-49825000D01*
X134835000Y-49825000D02*
X135561000Y-49099000D01*
X135561000Y-49099000D02*
X141679000Y-49099000D01*
X120601000Y-49099000D02*
X126539000Y-49099000D01*
X119875000Y-49825000D02*
X120601000Y-49099000D01*
X126539000Y-49099000D02*
X127265000Y-49825000D01*
%TO.N,GND*%
X116375000Y-57297500D02*
X114458750Y-59213750D01*
X116375000Y-51575000D02*
X116375000Y-57297500D01*
%TD*%
M02*
