%TF.GenerationSoftware,KiCad,Pcbnew,9.0.2*%
%TF.CreationDate,2025-07-05T21:10:48-04:00*%
%TF.ProjectId,hackpad,6861636b-7061-4642-9e6b-696361645f70,rev?*%
%TF.SameCoordinates,Original*%
%TF.FileFunction,Soldermask,Top*%
%TF.FilePolarity,Negative*%
%FSLAX46Y46*%
G04 Gerber Fmt 4.6, Leading zero omitted, Abs format (unit mm)*
G04 Created by KiCad (PCBNEW 9.0.2) date 2025-07-05 21:10:48*
%MOMM*%
%LPD*%
G01*
G04 APERTURE LIST*
G04 Aperture macros list*
%AMRoundRect*
0 Rectangle with rounded corners*
0 $1 Rounding radius*
0 $2 $3 $4 $5 $6 $7 $8 $9 X,Y pos of 4 corners*
0 Add a 4 corners polygon primitive as box body*
4,1,4,$2,$3,$4,$5,$6,$7,$8,$9,$2,$3,0*
0 Add four circle primitives for the rounded corners*
1,1,$1+$1,$2,$3*
1,1,$1+$1,$4,$5*
1,1,$1+$1,$6,$7*
1,1,$1+$1,$8,$9*
0 Add four rect primitives between the rounded corners*
20,1,$1+$1,$2,$3,$4,$5,0*
20,1,$1+$1,$4,$5,$6,$7,0*
20,1,$1+$1,$6,$7,$8,$9,0*
20,1,$1+$1,$8,$9,$2,$3,0*%
G04 Aperture macros list end*
%ADD10R,1.600000X0.850000*%
%ADD11C,2.000000*%
%ADD12R,3.200000X2.000000*%
%ADD13R,2.000000X2.000000*%
%ADD14C,1.700000*%
%ADD15C,4.000000*%
%ADD16C,2.200000*%
%ADD17C,1.440000*%
%ADD18RoundRect,0.225000X-0.375000X0.225000X-0.375000X-0.225000X0.375000X-0.225000X0.375000X0.225000X0*%
%ADD19RoundRect,0.152400X1.063600X0.609600X-1.063600X0.609600X-1.063600X-0.609600X1.063600X-0.609600X0*%
%ADD20C,1.524000*%
%ADD21RoundRect,0.152400X-1.063600X-0.609600X1.063600X-0.609600X1.063600X0.609600X-1.063600X0.609600X0*%
G04 APERTURE END LIST*
D10*
%TO.C,D4*%
X142405000Y-49825000D03*
X142405000Y-51575000D03*
X138905000Y-51575000D03*
X138905000Y-49825000D03*
%TD*%
%TO.C,D3*%
X134835000Y-49825000D03*
X134835000Y-51575000D03*
X131335000Y-51575000D03*
X131335000Y-49825000D03*
%TD*%
D11*
%TO.C,SW8*%
X98790000Y-80850000D03*
X98790000Y-85850000D03*
D12*
X91790000Y-88950000D03*
X91790000Y-77750000D03*
D11*
X84290000Y-83350000D03*
X84290000Y-85850000D03*
D13*
X84290000Y-80850000D03*
%TD*%
D14*
%TO.C,SW5*%
X144938750Y-64293750D03*
D15*
X150018750Y-64293750D03*
D14*
X155098750Y-64293750D03*
D16*
X152558750Y-59213750D03*
X146208750Y-61753750D03*
%TD*%
%TO.C,SW6*%
X146208750Y-80803750D03*
X152558750Y-78263750D03*
D14*
X155098750Y-83343750D03*
D15*
X150018750Y-83343750D03*
D14*
X144938750Y-83343750D03*
%TD*%
%TO.C,SW4*%
X125888750Y-83343750D03*
D15*
X130968750Y-83343750D03*
D14*
X136048750Y-83343750D03*
D16*
X133508750Y-78263750D03*
X127158750Y-80803750D03*
%TD*%
D14*
%TO.C,SW3*%
X125888750Y-64293750D03*
D15*
X130968750Y-64293750D03*
D14*
X136048750Y-64293750D03*
D16*
X133508750Y-59213750D03*
X127158750Y-61753750D03*
%TD*%
D14*
%TO.C,SW2*%
X106838750Y-83343750D03*
D15*
X111918750Y-83343750D03*
D14*
X116998750Y-83343750D03*
D16*
X114458750Y-78263750D03*
X108108750Y-80803750D03*
%TD*%
D14*
%TO.C,SW1*%
X106838750Y-64293750D03*
D15*
X111918750Y-64293750D03*
D14*
X116998750Y-64293750D03*
D16*
X114458750Y-59213750D03*
X108108750Y-61753750D03*
%TD*%
D17*
%TO.C,RV1*%
X158500000Y-50870000D03*
X155960000Y-53410000D03*
X153420000Y-50870000D03*
%TD*%
D18*
%TO.C,D10*%
X83250000Y-69700000D03*
X83250000Y-73000000D03*
%TD*%
%TO.C,D9*%
X86600000Y-69700000D03*
X86600000Y-73000000D03*
%TD*%
%TO.C,D8*%
X89950000Y-69700000D03*
X89950000Y-73000000D03*
%TD*%
%TO.C,D7*%
X93300000Y-69700000D03*
X93300000Y-73000000D03*
%TD*%
%TO.C,D6*%
X96650000Y-69700000D03*
X96650000Y-73000000D03*
%TD*%
%TO.C,D5*%
X100000000Y-69700000D03*
X100000000Y-73000000D03*
%TD*%
D10*
%TO.C,D1*%
X123765000Y-49825000D03*
X123765000Y-51575000D03*
X127265000Y-51575000D03*
X127265000Y-49825000D03*
%TD*%
D19*
%TO.C,U1*%
X83220000Y-49323500D03*
D20*
X84055000Y-49323500D03*
D19*
X83220000Y-51863500D03*
D20*
X84055000Y-51863500D03*
D19*
X83220000Y-54403500D03*
D20*
X84055000Y-54403500D03*
D19*
X83220000Y-56943500D03*
D20*
X84055000Y-56943500D03*
D19*
X83220000Y-59483500D03*
D20*
X84055000Y-59483500D03*
D19*
X83220000Y-62023500D03*
D20*
X84055000Y-62023500D03*
D19*
X83220000Y-64563500D03*
D20*
X84055000Y-64563500D03*
X99295000Y-64563500D03*
D21*
X100130000Y-64563500D03*
D20*
X99295000Y-62023500D03*
D21*
X100130000Y-62023500D03*
D20*
X99295000Y-59483500D03*
D21*
X100130000Y-59483500D03*
D20*
X99295000Y-56943500D03*
D21*
X100130000Y-56943500D03*
D20*
X99295000Y-54403500D03*
D21*
X100130000Y-54403500D03*
D20*
X99295000Y-51863500D03*
D21*
X100130000Y-51863500D03*
D20*
X99295000Y-49323500D03*
D21*
X100130000Y-49323500D03*
%TD*%
D10*
%TO.C,D2*%
X116375000Y-49825000D03*
X116375000Y-51575000D03*
X119875000Y-51575000D03*
X119875000Y-49825000D03*
%TD*%
M02*
