%TF.GenerationSoftware,KiCad,Pcbnew,9.0.2*%
%TF.CreationDate,2025-06-27T12:13:14-04:00*%
%TF.ProjectId,hackpad,6861636b-7061-4642-9e6b-696361645f70,rev?*%
%TF.SameCoordinates,Original*%
%TF.FileFunction,Soldermask,Top*%
%TF.FilePolarity,Negative*%
%FSLAX46Y46*%
G04 Gerber Fmt 4.6, Leading zero omitted, Abs format (unit mm)*
G04 Created by KiCad (PCBNEW 9.0.2) date 2025-06-27 12:13:14*
%MOMM*%
%LPD*%
G01*
G04 APERTURE LIST*
G04 Aperture macros list*
%AMRoundRect*
0 Rectangle with rounded corners*
0 $1 Rounding radius*
0 $2 $3 $4 $5 $6 $7 $8 $9 X,Y pos of 4 corners*
0 Add a 4 corners polygon primitive as box body*
4,1,4,$2,$3,$4,$5,$6,$7,$8,$9,$2,$3,0*
0 Add four circle primitives for the rounded corners*
1,1,$1+$1,$2,$3*
1,1,$1+$1,$4,$5*
1,1,$1+$1,$6,$7*
1,1,$1+$1,$8,$9*
0 Add four rect primitives between the rounded corners*
20,1,$1+$1,$2,$3,$4,$5,0*
20,1,$1+$1,$4,$5,$6,$7,0*
20,1,$1+$1,$6,$7,$8,$9,0*
20,1,$1+$1,$8,$9,$2,$3,0*%
G04 Aperture macros list end*
%ADD10C,2.000000*%
%ADD11R,3.200000X2.000000*%
%ADD12R,2.000000X2.000000*%
%ADD13RoundRect,0.250000X-0.450000X0.350000X-0.450000X-0.350000X0.450000X-0.350000X0.450000X0.350000X0*%
%ADD14C,2.200000*%
%ADD15C,1.700000*%
%ADD16C,4.000000*%
%ADD17R,1.600000X0.850000*%
%ADD18RoundRect,0.152400X-1.063600X-0.609600X1.063600X-0.609600X1.063600X0.609600X-1.063600X0.609600X0*%
%ADD19C,1.524000*%
%ADD20RoundRect,0.152400X1.063600X0.609600X-1.063600X0.609600X-1.063600X-0.609600X1.063600X-0.609600X0*%
%ADD21RoundRect,0.162500X-0.617500X-0.162500X0.617500X-0.162500X0.617500X0.162500X-0.617500X0.162500X0*%
%ADD22C,1.440000*%
G04 APERTURE END LIST*
D10*
%TO.C,SW7*%
X98750000Y-80843750D03*
X98750000Y-85843750D03*
D11*
X91750000Y-88943750D03*
X91750000Y-77743750D03*
D10*
X84250000Y-83343750D03*
X84250000Y-85843750D03*
D12*
X84250000Y-80843750D03*
%TD*%
D13*
%TO.C,R3*%
X89950000Y-69450000D03*
X89950000Y-71450000D03*
%TD*%
%TO.C,R4*%
X86350000Y-71450000D03*
X86350000Y-69450000D03*
%TD*%
%TO.C,R1*%
X97725000Y-69450000D03*
X97725000Y-71450000D03*
%TD*%
D14*
%TO.C,SW3*%
X127158750Y-61753750D03*
X133508750Y-59213750D03*
D15*
X136048750Y-64293750D03*
D16*
X130968750Y-64293750D03*
D15*
X125888750Y-64293750D03*
%TD*%
D17*
%TO.C,D2*%
X119875000Y-49825000D03*
X119875000Y-51575000D03*
X116375000Y-51575000D03*
X116375000Y-49825000D03*
%TD*%
%TO.C,D1*%
X127265000Y-49825000D03*
X127265000Y-51575000D03*
X123765000Y-51575000D03*
X123765000Y-49825000D03*
%TD*%
%TO.C,D3*%
X134835000Y-49825000D03*
X134835000Y-51575000D03*
X131335000Y-51575000D03*
X131335000Y-49825000D03*
%TD*%
%TO.C,D4*%
X138905000Y-49825000D03*
X138905000Y-51575000D03*
X142405000Y-51575000D03*
X142405000Y-49825000D03*
%TD*%
D18*
%TO.C,U1*%
X100130000Y-49323500D03*
D19*
X99295000Y-49323500D03*
D18*
X100130000Y-51863500D03*
D19*
X99295000Y-51863500D03*
D18*
X100130000Y-54403500D03*
D19*
X99295000Y-54403500D03*
D18*
X100130000Y-56943500D03*
D19*
X99295000Y-56943500D03*
D18*
X100130000Y-59483500D03*
D19*
X99295000Y-59483500D03*
D18*
X100130000Y-62023500D03*
D19*
X99295000Y-62023500D03*
D18*
X100130000Y-64563500D03*
D19*
X99295000Y-64563500D03*
X84055000Y-64563500D03*
D20*
X83220000Y-64563500D03*
D19*
X84055000Y-62023500D03*
D20*
X83220000Y-62023500D03*
D19*
X84055000Y-59483500D03*
D20*
X83220000Y-59483500D03*
D19*
X84055000Y-56943500D03*
D20*
X83220000Y-56943500D03*
D19*
X84055000Y-54403500D03*
D20*
X83220000Y-54403500D03*
D19*
X84055000Y-51863500D03*
D20*
X83220000Y-51863500D03*
D19*
X84055000Y-49323500D03*
D20*
X83220000Y-49323500D03*
%TD*%
D13*
%TO.C,R2*%
X93875000Y-71450000D03*
X93875000Y-69450000D03*
%TD*%
D14*
%TO.C,SW2*%
X108108750Y-80803750D03*
X114458750Y-78263750D03*
D15*
X116998750Y-83343750D03*
D16*
X111918750Y-83343750D03*
D15*
X106838750Y-83343750D03*
%TD*%
%TO.C,SW1*%
X106838750Y-64293750D03*
D16*
X111918750Y-64293750D03*
D15*
X116998750Y-64293750D03*
D14*
X114458750Y-59213750D03*
X108108750Y-61753750D03*
%TD*%
D21*
%TO.C,U2*%
X104900000Y-50550000D03*
X104900000Y-51500000D03*
X104900000Y-52450000D03*
X107600000Y-52450000D03*
X107600000Y-50550000D03*
%TD*%
D15*
%TO.C,SW6*%
X144938750Y-83343750D03*
D16*
X150018750Y-83343750D03*
D15*
X155098750Y-83343750D03*
D14*
X152558750Y-78263750D03*
X146208750Y-80803750D03*
%TD*%
D15*
%TO.C,SW5*%
X144938750Y-64293750D03*
D16*
X150018750Y-64293750D03*
D15*
X155098750Y-64293750D03*
D14*
X152558750Y-59213750D03*
X146208750Y-61753750D03*
%TD*%
D15*
%TO.C,SW4*%
X125888750Y-83343750D03*
D16*
X130968750Y-83343750D03*
D15*
X136048750Y-83343750D03*
D14*
X133508750Y-78263750D03*
X127158750Y-80803750D03*
%TD*%
D22*
%TO.C,RV1*%
X157290000Y-51995000D03*
X154750000Y-51995000D03*
X152210000Y-51995000D03*
%TD*%
M02*
