%TF.GenerationSoftware,KiCad,Pcbnew,9.0.2*%
%TF.CreationDate,2025-07-05T21:10:48-04:00*%
%TF.ProjectId,hackpad,6861636b-7061-4642-9e6b-696361645f70,rev?*%
%TF.SameCoordinates,Original*%
%TF.FileFunction,Soldermask,Bot*%
%TF.FilePolarity,Negative*%
%FSLAX46Y46*%
G04 Gerber Fmt 4.6, Leading zero omitted, Abs format (unit mm)*
G04 Created by KiCad (PCBNEW 9.0.2) date 2025-07-05 21:10:48*
%MOMM*%
%LPD*%
G01*
G04 APERTURE LIST*
%ADD10C,2.000000*%
%ADD11R,3.200000X2.000000*%
%ADD12R,2.000000X2.000000*%
%ADD13C,1.700000*%
%ADD14C,4.000000*%
%ADD15C,2.200000*%
%ADD16C,1.440000*%
%ADD17C,1.524000*%
G04 APERTURE END LIST*
D10*
%TO.C,SW8*%
X98790000Y-80850000D03*
X98790000Y-85850000D03*
D11*
X91790000Y-88950000D03*
X91790000Y-77750000D03*
D10*
X84290000Y-83350000D03*
X84290000Y-85850000D03*
D12*
X84290000Y-80850000D03*
%TD*%
D13*
%TO.C,SW5*%
X144938750Y-64293750D03*
D14*
X150018750Y-64293750D03*
D13*
X155098750Y-64293750D03*
D15*
X152558750Y-59213750D03*
X146208750Y-61753750D03*
%TD*%
%TO.C,SW6*%
X146208750Y-80803750D03*
X152558750Y-78263750D03*
D13*
X155098750Y-83343750D03*
D14*
X150018750Y-83343750D03*
D13*
X144938750Y-83343750D03*
%TD*%
%TO.C,SW4*%
X125888750Y-83343750D03*
D14*
X130968750Y-83343750D03*
D13*
X136048750Y-83343750D03*
D15*
X133508750Y-78263750D03*
X127158750Y-80803750D03*
%TD*%
D13*
%TO.C,SW3*%
X125888750Y-64293750D03*
D14*
X130968750Y-64293750D03*
D13*
X136048750Y-64293750D03*
D15*
X133508750Y-59213750D03*
X127158750Y-61753750D03*
%TD*%
D13*
%TO.C,SW2*%
X106838750Y-83343750D03*
D14*
X111918750Y-83343750D03*
D13*
X116998750Y-83343750D03*
D15*
X114458750Y-78263750D03*
X108108750Y-80803750D03*
%TD*%
D13*
%TO.C,SW1*%
X106838750Y-64293750D03*
D14*
X111918750Y-64293750D03*
D13*
X116998750Y-64293750D03*
D15*
X114458750Y-59213750D03*
X108108750Y-61753750D03*
%TD*%
D16*
%TO.C,RV1*%
X158500000Y-50870000D03*
X155960000Y-53410000D03*
X153420000Y-50870000D03*
%TD*%
D17*
%TO.C,U1*%
X84055000Y-49323500D03*
X84055000Y-51863500D03*
X84055000Y-54403500D03*
X84055000Y-56943500D03*
X84055000Y-59483500D03*
X84055000Y-62023500D03*
X84055000Y-64563500D03*
X99295000Y-64563500D03*
X99295000Y-62023500D03*
X99295000Y-59483500D03*
X99295000Y-56943500D03*
X99295000Y-54403500D03*
X99295000Y-51863500D03*
X99295000Y-49323500D03*
%TD*%
M02*
